<svg xmlns="http://www.w3.org/2000/svg" width="198pt" height="82pt" viewBox="0 0 198 82"><defs><clipPath id="a"><path d="M132.59 35.457c.762.07 1.242.539 1.34 1.348.086.73-.563 1.371-1.34 1.387-.848.02-1.355-.344-1.43-1.215-.066-.813.543-1.492 1.43-1.52zm1.297-8.121c-1.434-.004-2.383 2.035-2.684 2.734-.23.543-.652.453-1.168.262-1.668-.352-2.645-.234-3.852.219-1.074.402-1.992 1.242-2.727 2.125-.504.609-.781 1.352-1.082 2.086-.152.375-.273.785-.387 1.172-1.242-.559-1.387 2.117-1.559 2.086-.277.027-.125-2.078-.734-2.129-.762-.066-.859 3.492.648 3.605 1.336.102 1.551-2.18 1.645-2.172.094.012.012.965.129 1.477.457 2.031.84 2.496 2.164 3.777.84.816.512 1.703.301 2.434-.246.816.188 1.359.563 1.434.586.113 1.793.168 2.469 0 .375-.047.605-.727.387-1.348-.262-.754-.035-1.867.781-1.824.367.02 1.543-.02 2.121.043.621.07.809 1.016.648 1.695-.289.813-.109 1.391.477 1.477.523.109 1.688.105 2.465-.043.469-.121.855-.711.605-1.391-.387-.84-.332-1.891 0-2.215.246-.242.637-.582.867-.695 1.695-1.207 1.922-1.793 2.336-4.168.129-.75-.504-.609-1.301-.609-.945 0-1.078.012-1.168-.867-.141-1.426-.543-2.547-1.383-3.691-.328-.359-.152-.699-.129-1.176.031-.77-.02-1.57 0-2.344.008-.375-.055-2.043-.434-1.953zm15.133 19.805c0 7.223-1.574 12.402-4.719 15.547-3.25 3.215-8.648 4.824-16.195 4.824-2.199 0-5.199-.34-9-1.027-4.848-.859-7.273-1.875-7.273-3.039 0-.48.566-2.965 1.691-7.449.184-.707.473-1.063.867-1.063.129.023.273.074.43.152 4.035 1.926 7.77 2.887 11.203 2.887 1.887 0 3.762-.457 5.621-1.367 2.254-1.09 3.379-2.457 3.379-4.105v-2.547c-2.672 2.434-6.105 3.648-10.297 3.648-4.926 0-8.977-1.707-12.145-5.129-3.066-3.293-4.602-7.348-4.602-12.16 0-4.84 1.469-8.855 4.402-12.047 3.066-3.32 7.078-4.98 12.031-4.98 3.957 0 6.98 1.371 9.078 4.105.418.559.707.836.863.836.238 0 .355-.457.355-1.367 0-2.027.234-3.043.707-3.043.418 0 2.688.219 6.801.648 4.113.406 6.25.633 6.406.684.445.152.668.48.668.988 0 1.746-.066 4.359-.195 7.828-.105 3.473-.156 6.082-.156 7.828 0 1.039.012 2.598.039 4.676.023 2.078.039 3.637.039 4.672"/></clipPath></defs><g><path d="M14.996 62.883c0-.18-.035.09-.102.805-.09.906-.16 2.063-.207 3.473-.066 1.594-.102 3.41-.102 5.445 0 3.363.098 5.758.285 7.184l.023.293c0 .09-.059.145-.184.16-.297.039-1.387.059-3.273.059-.445 0-.699-.086-.766-.254l-.051-.93c-.008-.066-.039-.129-.098-.195l-.188.145c-.887.863-2 1.297-3.332 1.297-1.738 0-3.133-.602-4.176-1.809-.996-1.148-1.496-2.598-1.496-4.348 0-1.777.488-3.238 1.469-4.387 1.039-1.219 2.437-1.832 4.203-1.832 1.242 0 2.211.391 2.902 1.172.113.133.195.195.246.195.074 0 .109-.105.113-.316-.004-.625-.02-1.563-.051-2.809-.035-1.246-.051-2.18-.051-2.797 0-.238.066-.371.199-.402.527-.027 1.25-.074 2.172-.148 1.648-.203 2.379-.305 2.188-.305.184 0 .273.102.273.305m-4.66 11.227c0-.645-.227-1.207-.676-1.688-.453-.488-1.004-.73-1.645-.73-.676 0-1.215.242-1.617.73-.398.48-.594 1.059-.594 1.734 0 .66.199 1.219.605 1.676.41.488.945.73 1.605.73s1.211-.242 1.656-.73c.445-.488.664-1.063.664-1.723" fill="#f90"/><path d="M28.141 73.582c0 .824-.27 1.293-.805 1.406-.09.016-.941.105-2.555.27-.973.105-2.422.23-4.352.379.117.527.465.93 1.051 1.207.477.23 1.023.344 1.633.344.73 0 1.469-.195 2.211-.586l.938-.586c.172.082.461.496.863 1.246.414.746.621 1.223.621 1.43 0 .055-.063.148-.188.277-1.004 1.07-2.566 1.602-4.684 1.602-1.957 0-3.539-.566-4.742-1.699-1.234-1.145-1.852-2.68-1.852-4.602 0-1.875.551-3.41 1.652-4.605 1.137-1.238 2.645-1.859 4.523-1.859 1.582 0 2.922.57 4.027 1.711 1.102 1.141 1.656 2.496 1.656 4.066m-4.324-.742c0-.508-.184-.949-.543-1.332-.363-.383-.797-.574-1.297-.574-.52 0-.949.215-1.285.648-.313.398-.469.867-.469 1.402 0 .219.113.332.344.332.609 0 1.559-.094 2.84-.281.273-.043.41-.105.41-.195" fill="#f90"/><path d="M34.02 72.863c0 2.223.008 3.93.023 5.117 0 .188.016.508.039.965.023.418.035.738.035.965 0 .172-.102.273-.309.305-.371.066-1.035.098-2 .098-.988 0-1.617-.031-1.891-.098-.18-.039-.285-.148-.309-.328v-.523c0-.727.008-1.809.023-3.25.02-1.449.027-2.535.027-3.25 0-3.422.004-4.98.012-4.68-.023-1.797-.129-3.352-.309-4.652l-.023-.207c0-.18.105-.27.32-.27h4.41c.207 0 .301.086.285.258l-.016.219c-.211 3.516-.32 6.629-.32 9.332" fill="#f90"/><path d="M41.184 65.535c0 1.414-.805 2.125-2.418 2.125-.695 0-1.266-.18-1.719-.539-.496-.391-.742-.918-.742-1.586 0-.637.258-1.156.766-1.566.469-.375 1.035-.559 1.695-.559.641 0 1.195.191 1.664.574.504.406.754.922.754 1.551m-.32 9.074c0 .594.012 1.484.039 2.664.023 1.172.035 2.051.035 2.637 0 .172-.102.273-.309.305-.281.051-.91.074-1.891.074-.988 0-1.621-.023-1.902-.074-.18-.031-.293-.082-.332-.156-.016-.035-.027-.156-.027-.367 0-.563.016-1.406.039-2.527.023-1.133.035-1.984.035-2.555 0-2.313-.09-4.152-.27-5.52l-.023-.258c0-.164.109-.246.332-.246.23 0 .582.027 1.051.074.477.051.836.074 1.074.074.238 0 .598-.02 1.074-.063.477-.039.836-.059 1.074-.059.199 0 .297.082.297.242l-.023.234c-.184 1.586-.273 3.426-.273 5.52" fill="#f90"/><path d="M56.652 74.242c0 1.711-.496 3.141-1.484 4.289-1.051 1.223-2.43 1.832-4.125 1.832-1.234 0-2.23-.352-2.988-1.051l-.148-.074c-.082 0-.16.152-.234.453-.066.301-.148.469-.246.5-.141.043-1.316.063-3.523.063-.52 0-.777-.094-.777-.281l.023-.184c.164-1.293.25-3.762.25-7.402 0-3.477-.125-6.504-.371-9.074l-.016-.137c0-.129.129-.203.383-.219.184-.008.898-.07 2.152-.184.879-.082 1.598-.121 2.148-.121.156 0 .234.133.234.402 0 .316-.02.738-.063 1.258-.047.645-.078 1.066-.086 1.27-.039.809-.063 1.906-.063 3.297 0 .254.066.379.199.379.066 0 .129-.031.184-.098.742-.781 1.715-1.172 2.918-1.172 1.805 0 3.211.609 4.223 1.82.941 1.125 1.41 2.602 1.41 4.434m-4.473-.133c0-.676-.211-1.246-.629-1.711-.422-.473-.969-.707-1.645-.707-.691 0-1.238.234-1.641.707-.398.465-.594 1.043-.594 1.734 0 .719.191 1.297.578 1.734.414.465.973.695 1.68.695.703 0 1.258-.238 1.668-.719.391-.449.582-1.027.582-1.734" fill="#f90"/><path d="M69.5 73.582c0 .824-.27 1.293-.805 1.406-.09.016-.941.105-2.555.27-.973.105-2.422.23-4.348.379.113.527.465.93 1.047 1.207.48.23 1.023.344 1.633.344.73 0 1.469-.195 2.211-.586l.938-.586c.176.082.461.496.867 1.246.41.746.617 1.223.617 1.43 0 .055-.063.148-.188.277-1.004 1.07-2.563 1.602-4.68 1.602-1.961 0-3.543-.566-4.746-1.699-1.234-1.145-1.852-2.68-1.852-4.602 0-1.875.551-3.41 1.656-4.605 1.137-1.238 2.645-1.859 4.52-1.859 1.582 0 2.926.57 4.027 1.711 1.105 1.141 1.656 2.496 1.656 4.066m-4.324-.742c0-.508-.18-.949-.543-1.332-.363-.383-.793-.574-1.297-.574-.52 0-.949.215-1.285.648-.313.398-.469.867-.469 1.402 0 .219.113.332.344.332.609 0 1.559-.094 2.844-.281.27-.043.406-.105.406-.195" fill="#f90"/><path d="M79.074 72.605c0 .32-.176.477-.531.477l-.691-.023c-.297-.023-.52-.035-.668-.035-.684 0-1.148.105-1.395.316-.246.211-.371.641-.371 1.281 0 .352.004.883.012 1.602.016.707.023 1.238.023 1.586 0 .238.02.594.051 1.063.031.465.051.813.051 1.039 0 .195-.137.305-.41.332-.395.031-1 .047-1.816.047-.781 0-1.406-.023-1.875-.074-.273-.031-.41-.164-.41-.402 0-.652.004-1.625.016-2.918.008-1.305.012-2.281.012-2.934 0-1.914-.18-3.488-.531-4.727l-.027-.184c0-.121.063-.203.188-.242.453-.051 1.117-.141 1.988-.27 1.301-.254 1.973-.379 2.016-.379.145 0 .242.258.281.77.043.512.117.77.223.77-.113 0 .223-.211 1.016-.637.789-.43 1.551-.645 2.285-.645.461 0 .691.098.691.293 0 .234-.027.57-.074 1-.051.465-.078.797-.086 1.004l.012.938c.016.48.023.801.023.953" fill="#f90"/><path d="M92.934 74.109c0 .625.039 1.559.113 2.797.074 1.238.109 2.168.109 2.785 0 .324-.145.5-.43.523-1.023.074-2.191.113-3.512.113-.156 0-.262-.234-.32-.699-.047-.473-.109-.711-.184-.719-.066.031-.152.102-.262.207-.922.922-1.91 1.379-2.965 1.379-1.605 0-2.934-.625-3.988-1.879-.996-1.172-1.496-2.574-1.496-4.203 0-1.883.516-3.395 1.547-4.543 1.07-1.191 2.535-1.785 4.395-1.785 1.293 0 2.316.449 3.066 1.344l.086.063c.074 0 .156-.195.246-.586.098-.398.215-.598.348-.598.305 0 .883.082 1.742.254.813.164 1.398.301 1.754.414.121.051.184.117.184.199l-.035.254c-.266 1.477-.398 3.035-.398 4.68m-3.977.074c0-.695-.223-1.262-.668-1.711-.434-.457-1.008-.684-1.715-.684-.711 0-1.281.223-1.719.672-.438.445-.656 1.02-.656 1.723 0 .66.234 1.223.695 1.695.461.473 1.02.711 1.68.711.699 0 1.27-.227 1.715-.672.445-.457.668-1.035.668-1.734" fill="#f90"/><path d="M108.488 62.883c0-.18-.031.09-.098.805-.09.906-.16 2.063-.211 3.473-.066 1.594-.098 3.41-.098 5.445 0 3.363.094 5.758.281 7.184l.027.293c0 .09-.063.145-.188.16-.297.039-1.387.059-3.273.059-.445 0-.699-.086-.766-.254l-.047-.93c-.012-.066-.043-.129-.102-.195l-.184.145c-.891.863-2.004 1.297-3.336 1.297-1.738 0-3.129-.602-4.176-1.809-.996-1.148-1.496-2.598-1.496-4.348 0-1.777.492-3.238 1.473-4.387 1.035-1.219 2.438-1.832 4.199-1.832 1.242 0 2.211.391 2.902 1.172.117.133.199.195.246.195.074 0 .113-.105.113-.316 0-.625-.016-1.563-.051-2.809-.031-1.246-.047-2.18-.047-2.797 0-.238.063-.371.195-.402.527-.027 1.254-.074 2.176-.148 1.645-.203 2.375-.305 2.188-.305.18 0 .27.102.27.305m-4.656 11.227c0-.645-.227-1.207-.68-1.688-.453-.488-1-.73-1.645-.73-.676 0-1.215.242-1.617.73-.395.48-.594 1.059-.594 1.734 0 .66.203 1.219.605 1.676.414.488.949.73 1.605.73.66 0 1.211-.242 1.656-.73.445-.488.668-1.063.668-1.723" fill="#f90"/><path d="M119.855 75.543c0 .488.027 1.215.082 2.176.059.965.086 1.688.086 2.168 0 .254-.109.391-.332.41-.781.055-1.676.082-2.688.082-.117 0-.199-.18-.246-.539-.035-.367-.082-.555-.141-.563l-.199.164c-.707.715-1.465 1.074-2.27 1.074-1.23 0-2.25-.488-3.059-1.465-.766-.914-1.145-2-1.145-3.27 0-1.461.395-2.641 1.184-3.531.82-.926 1.941-1.391 3.367-1.391.992 0 1.773.352 2.348 1.047l.066.047c.059 0 .121-.152.191-.457.074-.309.164-.465.262-.465.234 0 .68.066 1.336.199.625.129 1.074.234 1.344.324.094.039.141.09.141.152l-.027.199c-.199 1.145-.301 2.359-.301 3.637m-3.051.059c0-.539-.168-.98-.508-1.328-.336-.355-.773-.535-1.316-.535s-.98.176-1.316.523c-.336.348-.5.797-.5 1.34 0 .512.176.953.527 1.32.355.367.785.551 1.289.551.535 0 .973-.172 1.316-.523.34-.352.508-.801.508-1.348" fill="#f90"/><path d="M136.863 79.945c0 .219-.094.344-.285.367-.188.027-.656.039-1.398.039-.77 0-1.25-.02-1.441-.055-.188-.039-.281-.195-.281-.469 0-.289.008-.723.027-1.301.02-.582.027-1.02.027-1.309 0-1.109-.012-1.898-.039-2.367-.035-.754-.391-1.129-1.066-1.129-.297 0-.594.125-.891.379-.289.246-.453.523-.484.824-.023.266-.035 1.047-.035 2.34 0 .297.008.75.027 1.359.02.602.027 1.051.027 1.355 0 .211-.09.316-.273.316h-2.867c-.18 0-.266-.133-.266-.391 0-.297.008-.746.027-1.34.02-.594.027-1.047.027-1.348 0-.234-.004-.59-.016-1.066-.016-.473-.02-.832-.02-1.074 0-.906-.344-1.355-1.031-1.355-.277 0-.578.105-.902.32-.352.234-.527.48-.527.742l.008 2.582c.008 1.148.012 2.008.012 2.578 0 .156-.02.254-.059.293-.039.039-.137.063-.293.074-.285.027-.73.039-1.344.039-.398 0-.848-.02-1.355-.055-.148-.016-.242-.035-.273-.066-.023-.035-.039-.129-.039-.285 0-.508.004-1.266.012-2.273l.008-2.277c0-1.039-.074-2.211-.227-3.508l-.02-.172c0-.105.043-.18.133-.219.141-.055.402-.102.785-.141l.844-.086c.063-.012.313-.078.746-.199.309-.09.559-.133.75-.133.117 0 .184.223.188.664.008.438.031.656.078.656l.215-.133c.57-.445 1.016-.746 1.344-.914.488-.234 1.016-.352 1.582-.352.582 0 1.098.133 1.551.391.512.293.844.699.996 1.227.332-.457.793-.84 1.383-1.148.586-.313 1.156-.469 1.711-.469.832 0 1.512.195 2.035.582.594.438.891 1.059.891 1.871 0 .336-.012.844-.027 1.52-.02.672-.031 1.176-.031 1.512 0 .398.012 1 .031 1.805.016.797.027 1.395.027 1.797" fill="#f90"/><path d="M147.332 75.137c0 .641-.207 1.004-.617 1.094-.066.012-.723.082-1.957.207-.746.082-1.855.18-3.332.297.086.41.355.723.805.938.367.18.781.266 1.25.266.559 0 1.125-.152 1.691-.453l.723-.457c.129.063.352.387.66.969.316.582.473.953.473 1.113 0 .043-.047.117-.141.219-.77.828-1.965 1.242-3.586 1.242-1.504 0-2.715-.441-3.637-1.32-.945-.895-1.418-2.086-1.418-3.582 0-1.457.422-2.648 1.266-3.582.871-.961 2.027-1.445 3.465-1.445 1.211 0 2.242.445 3.086 1.332.848.887 1.27 1.941 1.27 3.164m-3.313-.578c0-.395-.141-.738-.418-1.039-.277-.297-.609-.445-.992-.445-.398 0-.727.168-.984.504-.242.309-.359.676-.359 1.094 0 .172.086.254.266.254.465 0 1.191-.07 2.176-.219.207-.031.313-.082.313-.148" fill="#f90"/><path d="M165.477 79.785c0 .242-.156.383-.469.418-.313.039-1.129.055-2.445.055-1.41 0-2.281-.027-2.617-.082-.336-.055-.504-.238-.504-.555 0-.426.02-1.066.051-1.926.035-.863.051-1.508.051-1.941 0-.336-.012-.832-.035-1.496-.02-.668-.031-1.172-.031-1.504 0-1.242-.664-1.859-1.996-1.859-.434 0-.941.152-1.523.461-.625.344-.941.684-.941 1.016v7.332c0 .297-.172.465-.52.5-.391.039-1.188.055-2.395.055-1.309 0-2.156-.027-2.547-.082-.348-.043-.52-.191-.52-.445 0-.707.004-1.77.016-3.191.012-1.418.016-2.488.016-3.203 0-2.254-.219-4.02-.652-5.305l-.035-.207c0-.145.086-.242.254-.297.703-.063 1.641-.164 2.813-.297 1.777-.281 2.777-.422 3.004-.422.121 0 .215.309.285.922.066.605.16.91.281.91-.121 0 .477-.313 1.797-.938 1.328-.633 2.492-.949 3.484-.949 1.418 0 2.605.273 3.555.813 1.063.625 1.594 1.496 1.594 2.609v4.328c0 .59.004 1.469.016 2.648.012 1.164.016 2.043.016 2.633" fill="#f90"/><path d="M179.473 76.199c0 .273-.043.684-.133 1.238-.078.551-.117.957-.117 1.219 0 .254-.035.418-.102.488-.066.074-.25.176-.551.313-1.441.645-3.043.965-4.797.965-3.227 0-4.844-1-4.844-3 0-.598.027-1.492.086-2.688.055-1.203.082-2.102.082-2.699 0-.398-.285-.598-.855-.598h-.219l-.215.012c-.426 0-.637-.121-.637-.367 0-.145.008-.363.031-.664.035-.297.051-.52.051-.664 0-.191-.016-.48-.051-.867-.02-.391-.031-.68-.031-.871 0-.18.355-.281 1.07-.297.402-.012.621-.102.656-.273.066-.344.09-.887.066-1.629l-.066-1.668c0-1.051.121-1.574.367-1.574.301 0 .73.055 1.289.164.641.117 1.082.184 1.324.203.57.063 1.434.148 2.582.258.281.016.422.094.422.23 0 .359-.039.91-.117 1.641-.07.734-.102 1.285-.102 1.656 0 .445.16.664.484.664.391 0 .984-.012 1.777-.039.793-.027 1.391-.043 1.793-.043.246 0 .371.07.371.207 0 .207-.027.52-.086.934-.055.418-.082.73-.082.938 0 .219.004.535.016.949.012.418.016.734.016.953 0 .188-.16.281-.484.281l-1.125-.012c-.523-.02-.898-.027-1.121-.027h-1.258c-.168 0-.25.199-.25.598v.965l.016.961c0 .762.105 1.285.316 1.574.305.391.895.586 1.777.586.281 0 .676-.051 1.191-.148.523-.109.895-.164 1.105-.164.234 0 .352.098.352.297" fill="#f90"/><path d="M196.621 72.809c0 .914-.363 1.434-1.09 1.559-.121.02-1.277.117-3.469.301-1.32.117-3.285.258-5.902.418.16.59.633 1.039 1.426 1.344.648.254 1.387.383 2.215.383.992 0 1.992-.219 3-.652l1.273-.652c.234.09.625.551 1.172 1.387.559.832.84 1.359.84 1.586 0 .063-.086.168-.25.313-1.367 1.184-3.484 1.777-6.355 1.777-2.66 0-4.805-.629-6.438-1.887-1.676-1.273-2.512-2.98-2.512-5.117 0-2.082.746-3.785 2.246-5.117 1.539-1.375 3.586-2.063 6.133-2.063 2.148 0 3.969.633 5.465 1.902 1.5 1.266 2.246 2.773 2.246 4.52m-5.867-.828c0-.563-.246-1.055-.738-1.48-.488-.426-1.078-.637-1.758-.637-.703 0-1.285.238-1.742.719-.426.441-.637.965-.637 1.559 0 .246.156.367.469.367.824 0 2.109-.102 3.855-.313.367-.043.551-.117.551-.215" fill="#f90"/><path d="M103.305 22.328c0 1.875-.094 4.684-.277 8.434-.184 3.75-.273 6.563-.273 8.438 0 1.824.066 4.563.195 8.211.133 3.648.199 6.371.199 8.168 0 .684-.328 1.117-.984 1.293-.996.254-3.105.379-6.328.379-2.855 0-4.848-.074-5.977-.227-.496-.074-.813-.379-.941-.914l-.234-2.277c-.133-1.168-.316-1.75-.551-1.75.367 0-.957.863-3.973 2.586-3.012 1.723-5.75 2.582-8.215 2.582-6.945 0-11.059-3.027-12.34-9.082-.578-2.813-.867-6.891-.867-12.238 0-5.773.484-10.336 1.453-13.68.289-1.039.828-1.559 1.613-1.559 1.207 0 3.039.012 5.504.039 2.461.023 4.297.039 5.504.039.813 0 1.219.328 1.219.988 0 .176-.027.441-.082.797-.547 3.445-.824 6.941-.824 10.488 0 4.41.145 7.422.434 9.047.473 2.785 2.188 4.18 5.148 4.18 1.152 0 2.398-.496 3.734-1.484 1.363-.988 2.07-2.012 2.121-3.078.055-.938.078-7.297.078-19.078 0-.836.066-1.328.199-1.48.156-.254.629-.379 1.414-.379 1.285 0 3.211.012 5.777.035 2.594.027 4.535.039 5.82.039.785 0 1.242.191 1.375.57.051.203.078.508.078.914" fill="rgb(23.921569%,55.686275%,55.686275%)"/><path d="M27.914 32.512c0 .609-.344.91-1.023.91-2.832 0-5.059-.074-6.684-.227.078 1.898.16 4.547.238 7.941.023 1.445.145 3.953.352 7.527.184 3.215.277 5.723.277 7.523 0 .531-.367.836-1.102.91-.891.102-3.117.152-6.684.152-2.961 0-4.887-.074-5.777-.227-.891-.152-1.336-.672-1.336-1.559v-20.938c0-.738-.523-1.105-1.574-1.105-.184 0-.484.016-.902.039-.395.027-.684.039-.863.039-.734 0-1.117-.203-1.141-.609-.238-2.203-.355-5.41-.355-9.613 0-.938.5-1.508 1.496-1.711.891-.074 1.793-.141 2.711-.191-.133-2.027-.195-3.609-.195-4.75 0-4.355.875-7.523 2.633-9.5 3.484-3.926 9.117-5.891 16.902-5.891.523 0 .836.152.941.457.211 1.141.512 2.824.906 5.055.023.203.195.91.508 2.129.238.938.355 1.656.355 2.164 0 .609-.93 1-2.789 1.18-2.152.227-3.473.605-3.973 1.141-.863.91-1.297 2.695-1.297 5.355 0 .836.066 1.621.199 2.359.73 0 1.871-.027 3.418-.078 1.547-.051 2.711-.074 3.5-.074.785 0 1.176.277 1.176.836 0 1.188.016 2.988.039 5.395.027 2.383.043 4.168.043 5.359" fill="rgb(23.921569%,55.686275%,55.686275%)"/><path d="M58.258 33.348c0 .988-.563 1.48-1.691 1.48-.496 0-1.23-.023-2.199-.074-.945-.078-1.652-.113-2.125-.113-2.172 0-3.652.328-4.441.988-.785.656-1.18 1.988-1.18 3.988 0 1.09.016 2.75.039 4.98.055 2.203.082 3.852.082 4.938 0 .734.051 1.84.156 3.309.105 1.445.156 2.52.156 3.23 0 .605-.434.949-1.297 1.023-1.258.102-3.184.152-5.777.152-2.488 0-4.48-.074-5.977-.227-.863-.102-1.297-.52-1.297-1.254 0-2.027.016-5.055.039-9.082.027-4.055.039-7.094.039-9.121 0-5.953-.563-10.855-1.688-14.707-.055-.23-.078-.418-.078-.57 0-.379.195-.633.586-.762 1.441-.152 3.551-.43 6.332-.836 4.137-.785 6.273-1.176 6.406-1.176.473 0 .773.797.902 2.395.133 1.594.367 2.391.707 2.391-.367 0 .707-.656 3.223-1.973 2.52-1.344 4.941-2.016 7.273-2.016 1.469 0 2.203.305 2.203.91 0 .738-.082 1.773-.238 3.117-.156 1.445-.25 2.484-.273 3.117 0 .734.012 1.711.039 2.926.051 1.496.078 2.484.078 2.965" fill="rgb(23.921569%,55.686275%,55.686275%)"/><path d="M195.285 38.023c0 1.949.117 4.852.352 8.699.238 3.852.355 6.742.355 8.668 0 1.012-.461 1.559-1.375 1.633-3.25.227-6.973.344-11.164.344-.5 0-.84-.723-1.023-2.168-.156-1.469-.352-2.219-.59-2.242-.207.102-.484.316-.824.645-2.934 2.863-6.078 4.297-9.434 4.297-5.109 0-9.344-1.953-12.695-5.852-3.172-3.648-4.758-8.008-4.758-13.074 0-5.852 1.637-10.566 4.914-14.137 3.406-3.699 8.07-5.551 13.992-5.551 4.113 0 7.363 1.395 9.75 4.18.105.129.195.191.273.191.238 0 .5-.609.785-1.824.316-1.242.684-1.863 1.102-1.863.969 0 2.816.266 5.543.801 2.594.504 4.453.938 5.582 1.289.395.152.59.355.59.609 0 .102-.039.367-.117.797-.84 4.586-1.258 9.438-1.258 14.559m-12.66.227c0-2.152-.707-3.926-2.121-5.32-1.391-1.418-3.211-2.129-5.465-2.129s-4.074.695-5.461 2.09c-1.391 1.395-2.086 3.18-2.086 5.359 0 2.051.734 3.813 2.203 5.281 1.465 1.469 3.25 2.207 5.344 2.207 2.23 0 4.051-.699 5.465-2.094 1.414-1.418 2.121-3.215 2.121-5.395" fill="rgb(23.921569%,55.686275%,55.686275%)"/><path d="M117.223 10.543c0 .93-.035 1.477-.102 1.645-.141.387-.563 1.039-1.266 1.965-.613.793-1.137 1.41-1.57 1.855-.16.168-.641.254-1.441.254-.695 0-1.148-.023-1.359-.066-.125-.027-.234-.082-.32-.164-.367-.352-.891-.965-1.57-1.84-.727-.938-1.16-1.582-1.301-1.93-.152-.375-.23-.938-.23-1.684l.008-.953.012-.969c0-.145.105-.215.32-.215.313 0 .781.008 1.402.027.633.016 1.102.023 1.414.023.141 0 .211.082.211.25 0 .152-.012.383-.035.695-.023.305-.039.535-.039.691 0 .563.02 1.027.059 1.383.016.188.195.535.531 1.043.348.539.602.809.762.809.152 0 .398-.266.734-.793.324-.492.5-.828.523-1.008.047-.387.074-.852.074-1.402 0-.156-.02-.395-.059-.707-.035-.32-.055-.559-.055-.711 0-.168.066-.25.195-.25l.652.008.66.008c.145 0 .367-.012.66-.031.301-.023.523-.035.668-.035.156 0 .254.07.305.215.105.309.156.938.156 1.887" fill="rgb(69.803922%,89.803922%,89.803922%)"/><path d="M122.125 6.406c0 .945-.602 1.418-1.801 1.418-.512 0-.938-.121-1.273-.359-.367-.262-.551-.613-.551-1.059 0-.422.188-.77.566-1.043.352-.25.77-.375 1.258-.375.477 0 .891.129 1.238.383.375.273.563.617.563 1.035m-.238 6.051c0 .398.008.988.027 1.777.016.781.027 1.367.027 1.758 0 .113-.078.18-.23.203-.207.031-.676.051-1.406.051-.73 0-1.203-.02-1.41-.051-.137-.023-.219-.059-.25-.105l-.02-.246c0-.375.012-.934.031-1.684.016-.754.027-1.324.027-1.703 0-1.543-.07-2.77-.203-3.68l-.02-.172c0-.109.082-.164.25-.164.168 0 .43.02.777.051.355.031.621.047.801.047.176 0 .441-.012.797-.039.355-.027.621-.039.801-.039.145 0 .219.051.219.16l-.02.156c-.133 1.059-.199 2.285-.199 3.68" fill="rgb(69.803922%,89.803922%,89.803922%)"/><path d="M132.496 10.543c0 .93-.035 1.477-.102 1.645-.141.387-.563 1.039-1.266 1.965-.613.793-1.137 1.41-1.57 1.855-.16.168-.641.254-1.441.254-.695 0-1.148-.023-1.359-.066-.129-.027-.234-.082-.32-.164-.367-.352-.891-.965-1.57-1.84-.727-.938-1.16-1.582-1.301-1.93-.156-.375-.23-.938-.23-1.684l.008-.953.012-.969c0-.145.105-.215.32-.215.313 0 .781.008 1.402.027.633.016 1.102.023 1.414.023.141 0 .211.082.211.25 0 .152-.012.383-.035.695-.023.305-.039.535-.039.691 0 .563.02 1.027.059 1.383.016.188.195.535.531 1.043.348.539.602.809.762.809.152 0 .398-.266.734-.793.324-.492.496-.828.523-1.008.047-.387.074-.852.074-1.402 0-.156-.02-.395-.059-.707-.035-.32-.055-.559-.055-.711 0-.168.066-.25.195-.25l.648.008.664.008c.145 0 .367-.012.66-.031.301-.023.523-.035.668-.035.156 0 .254.07.305.215.105.309.156.938.156 1.887" fill="rgb(69.803922%,89.803922%,89.803922%)"/><path d="M142.168 11.773c0 .547-.195.859-.594.938-.066.012-.703.07-1.902.18-.719.07-1.797.152-3.23.25.086.355.348.621.781.809.355.152.758.227 1.211.227.547 0 1.094-.129 1.645-.391l.695-.391c.129.055.344.332.645.832.305.496.457.816.457.949 0 .039-.043.102-.137.188-.746.711-1.906 1.066-3.477 1.066-1.457 0-2.633-.375-3.527-1.129-.918-.766-1.375-1.789-1.375-3.07 0-1.25.41-2.273 1.23-3.07.844-.824 1.961-1.238 3.359-1.238 1.172 0 2.172.379 2.992 1.141.82.758 1.23 1.664 1.23 2.711m-3.215-.496c0-.336-.133-.633-.402-.887-.27-.258-.59-.383-.965-.383-.387 0-.703.141-.953.43-.234.266-.352.578-.352.938 0 .145.086.219.258.219.453 0 1.156-.063 2.113-.188.199-.027.301-.07.301-.129" fill="rgb(69.803922%,89.803922%,89.803922%)"/><path d="M149.285 11.121c0 .211-.133.32-.398.32l-.512-.02-.496-.023c-.508 0-.855.07-1.035.211-.184.141-.277.426-.277.855l.008 1.066c.016.473.02.828.02 1.059 0 .16.012.395.039.711.023.309.035.539.035.691 0 .129-.102.203-.305.219-.293.023-.742.035-1.348.035-.582 0-1.047-.02-1.395-.051-.203-.023-.305-.109-.305-.27 0-.434.004-1.082.012-1.945l.008-1.953c0-1.277-.129-2.328-.395-3.152l-.016-.121c0-.082.043-.137.137-.164.336-.031.828-.094 1.477-.18.969-.168 1.465-.254 1.496-.254.109 0 .18.172.211.516.031.34.086.512.164.512-.086 0 .168-.141.754-.422.586-.289 1.152-.434 1.699-.434.344 0 .512.066.512.195 0 .16-.016.379-.055.668-.035.309-.059.531-.063.668l.008.629.02.633" fill="rgb(69.803922%,89.803922%,89.803922%)"/><g clip-path="url(#a)"><path d="M111.633 17.598h25.184c.074.164-.039.266-.129.367-.879.984-1.719 2.004-2.578 3.004-.113.133-.227.258-.379.344-.074.031-.148.066-.191.141l-.059.063c-.074.055-.16.066-.25.066-.188-.023-.305-.152-.422-.277-.793-.813-1.648-1.559-2.441-2.367-.086-.086-.18-.168-.348-.242-2.734 2.48-5.352 5.109-8.031 7.676-.109.105-.219.211-.391.168-.383-.25-.695-.586-1.023-.898-.98-.934-1.969-1.859-2.969-2.773-1.164-1.063-2.305-2.152-3.48-3.203-.277-.246-.496-.563-.883-.75-1.199 1.25-2.359 2.543-3.531 3.824l-.254.25-.078.086-.051.055-.027.023c-.059.047-.109.102-.141.172l-.047.063-.137.148c-.234.23-.465.469-.676.727-.082.102-.172.195-.301.238-.066.012-.125.027-.176.094-.258.332-.602.59-.859.91-.355.449-.824.809-1.07 1.348l-.074.055c-.152.027-.238-.074-.32-.176-.113-.223-.094-.473-.125-.715l-.18-.922c-.027-.188-.004-.363.086-.527.125-.348.418-.566.656-.824.891-.961 1.766-1.945 2.648-2.914.906-.992 1.789-2.004 2.703-2.992.098-.109.223-.168.344-.238zm0 0" fill="rgb(23.921569%,55.686275%,55.686275%)"/><path d="M144.949 17.598h.121c.086.051.18.027.266.027 1.715-.004 3.43.055 5.148.031.109 0 .223-.016.359.059.109.188.145.422.145.664-.004 1.184.047 2.367.098 3.547.027.688-.016 1.375.051 2.059.012.125.043.27-.098.359-.176.074-.281-.039-.391-.148-.324-.316-.598-.68-.887-1.031-.168-.203-.348-.387-.539-.566l-.055-.066c-.984-1.266-2.117-2.395-3.086-3.609-.195 0-.27.09-.348.164-.641.602-1.238 1.25-1.859 1.867-.418.414-.848.809-1.246 1.238-.078.082-.172.145-.297.121-.336-.195-.578-.5-.848-.77-1.16-1.164-2.363-2.285-3.566-3.402-.16-.148-.402-.262-.371-.547h6.918c.039.039.082.039.121 0h.184c.059.047.121.047.18.004zm0 0" fill="rgb(23.921569%,55.686275%,55.686275%)"/><path d="M137.547 17.598l4.809 4.668c.098.125.035.234-.051.324-.332.367-.695.707-1.055 1.047-.074.07-.164.113-.273.109-.234-.059-.367-.242-.52-.402-.852-.922-1.785-1.762-2.68-2.641-.086-.082-.176-.168-.297-.215-.141.016-.215.133-.301.227-.641.691-1.246 1.414-1.855 2.129-.109.129-.215.27-.395.316-.117.02-.223-.012-.305-.098-.348-.367-.754-.672-1.098-1.043-.102-.109-.23-.207-.207-.383.039-.082.113-.129.18-.184l.008-.008c0-.109.078-.148.164-.188l3.145-3.66h.73zm0 0" fill="rgb(25.882353%,12.941176%,4.313725%)"/><path d="M150.887 24.309c.41-.188.121-.516.121-.762.02-1.926.012-3.855.012-5.949h0c.102.129.086.285.086.434 0 1.617.074 3.234.066 4.852v.77c.016.195-.039.391.027.582v.426l-.078.023c-.121-.098-.316-.148-.234-.375zm0 0" fill="rgb(3.921569%,35.686275%,35.686275%)"/><path d="M151.148 22.891l-.129-5.293c.059.07.172.141.172.211.012 1.695.012 3.391.012 5.086l-.031.039-.02-.043zm0 0" fill="rgb(59.607843%,83.137255%,86.27451%)"/><path d="M151.141 24.672l.059-.008v.363l-.77-.82.016-.066c.16-.066.238.055.32.152.113.141.227.273.375.379zm0 0" fill="rgb(26.27451%,24.313725%,49.411765%)"/><path d="M151.148 22.891l.051.004v.793l-.023.039-.016-.043-.008-.793zm0 0" fill="rgb(23.921569%,55.686275%,55.686275%)"/><path d="M151.16 23.684l.039.004v.547l-.039-.551zm0 0" fill="rgb(23.921569%,55.686275%,55.686275%)"/><path d="M151.199 25.516v0zm0 0" fill="rgb(26.27451%,24.313725%,49.411765%)"/><path d="M144.949 17.598h0zm0 0" fill="rgb(3.921569%,35.686275%,35.686275%)"/><path d="M144.586 17.598h0zm0 0" fill="rgb(3.921569%,35.686275%,35.686275%)"/><path d="M151.199 26.125l-.039-.051.039-.012v.063zm0 0" fill="rgb(26.27451%,24.313725%,49.411765%)"/><path d="M126.152 52l.109-.016c.484-.156.992-.16 1.484-.242h.274l.086.016c.082.047.16.008.242 0l.129.004.648.102.086.016c.387.082.754.234 1.129.352l.082.031c.117.113.273.145.426.184 1.199.629 2.109 1.559 2.781 2.73.344.676.652 1.359.781 2.113 0 .234.156.441.113.719.125-.586.223-1.141.449-1.656.219-.5.363-1.043.801-1.422.055-.047.125-.094.141-.156.102-.406.371-.703.629-1.008l.035-.082.055-.066.074-.055 1.086-.863c.102-.082.219-.105.328-.148.348-.133.602-.438.98-.508.273-.051.523-.242.84-.148-.063-.051-.031-.086-.012-.117.141-.137.328-.16.508-.172 1.109-.055 2.223-.09 3.293.297.578.207 1.082.543 1.582.891.832.582 1.434 1.355 1.926 2.23.441.785.66 1.637.801 2.508.086.539.102 1.09.098 1.637-.004.273-.105.539-.063.813-.008.258-.121.488-.18.734-.477 1.676-1.465 2.973-2.863 3.98l-.191.117-.09.023c-.27.066-.48.25-.73.355-.637.27-1.297.453-1.969.594-.508.109-1.023.086-1.535.031-1.262-.137-2.402-.594-3.414-1.367-.176-.133-.355-.266-.492-.445l-.109-.211-.051-.059c-.035-.109-.102-.191-.203-.242l-.074-.039-.059-.059-.047-.07c-.051-.121-.16-.184-.25-.266-.391-.484-.68-1.027-.875-1.613-.188-.563-.395-1.125-.453-1.727-.09.566-.234 1.109-.453 1.633-.207.32-.316.695-.551 1.004-.059.07-.031.176-.031.266l-.016.09c-.598.918-1.32 1.711-2.246 2.313-.887.582-1.852.973-2.895 1.113-1.039.141-2.09.16-3.113-.215-1.055-.391-2.047-.891-2.82-1.727-.957-1.039-1.664-2.219-1.941-3.625-.035-.172-.047-.344-.063-.516-.137.605-.41 1.148-.707 1.688l-.109.176-.039.07-.047.066-.027.027c-.078.059-.117.141-.148.227l-.051.063c-.102.063-.137.168-.191.266-.828 1.098-1.895 1.887-3.148 2.438-.633.203-1.266.402-1.918.527-.336.066-.684.055-1.016.148-.102.035-.203.035-.309.027-.484-.074-.977-.09-1.461-.148-.152.027-.301-.012-.445-.055-.719-.273-1.461-.496-2.141-.863-1.477-.754-2.551-1.895-3.281-3.379-.176-.359-.301-.746-.52-1.145-.477.809-.871 1.609-1.477 2.27-.105.09-.191.199-.262.32-.117.105-.25.195-.348.32-.082.047-.164.078-.258.035-.141-.129-.191-.309-.258-.477-.277-.676-.586-1.336-1.004-1.938l-.027-.082c-.031-.176-.043-.363-.227-.469l-.051-.063-.105-.215-.027-.078c-.004-.219-.148-.328-.332-.398-.055-.055-.086-.117-.082-.195l.023-.082c.102-.234.371-.305.5-.512l.039-.07.059-.063.066-.047c.145-.074.25-.188.34-.32l.055-.059c.082-.031.082-.121.125-.18l.066-.047c.246-.23.477-.469.594-.797.09-.203.242-.359.402-.508.043-.035.121-.066.078-.137l-.363-.77c-.18-.262-.289-.559-.375-.859-.027-.336-.152-.637-.348-.91-.184-.414-.332-.844-.496-1.27-.129-.395-.195-.809-.41-1.172l-.051-.07c-.031-.086-.039-.188-.105-.262l-.031-.074c0-.117-.066-.207-.141-.285-.129-.184-.215-.391-.258-.609-.063-.32-.223-.605-.336-.906-.023-.121.023-.254-.074-.359l-.047-.07-.141-.273c-.07-.188-.188-.367-.059-.574.148-.133.305-.059.457-.012 1.254.406 2.297 1.121 3.172 2.105 1.117 1.258 1.836 2.707 2.129 4.367l.059.133c.18-.332.371-.645.57-.953 1.316-2.031 3.219-3.098 5.574-3.418l.262-.07c1.758-.039 3.449.211 4.988 1.137.152.156.359.234.539.355 1.164.84 2.156 1.832 2.793 3.145.336.699.531 1.492.609 2.594l.008.004-.027-.012c.449-2.031 1.551-3.574 3.375-4.582.105-.02.195-.078.285-.129.594-.332 1.238-.496 1.902-.598zm0 0" fill="rgb(2.352941%,2.745098%,3.137255%)"/><path d="M103.246 62.41l1.621-2.465c.648 2 1.828 3.633 3.738 4.668.199.262.523.344.789.449.371.145.758.293 1.156.379l.176.023.418.086c.5.09.996.246 1.516.105l.305-.004c1.047.012 2.023-.258 2.965-.695 1.188-.582 2.25-1.328 3.047-2.406.09-.07.184-.137.18-.266l.027-.035c.156-.016.148-.16.203-.258l.066-.047-.039-.02.016-.027c.125.016.07-.086.09-.141l.879-2.035c.457 3.242 2.207 5.566 5.508 6.246 3.148.648 5.641-.699 7.469-3.309.172.02.227.16.297.281.867 1.543 2.188 2.523 3.832 3.082.586.199 1.199.273 1.816.309 1.262.074 2.477-.137 3.652-.59.641-.25 1.223-.621 1.809-.98l.063-.059.039-.023c1.418-.988 2.398-2.305 2.926-3.957.25-.453.297-.961.406-1.457.094-.43.129-.855.094-1.281-.027-.383-.102-.766-.191-1.145-.063-.27-.063-.555-.184-.813-.211-.441-.293-.945-.633-1.324-.199-.352-.52-.625-.676-1.008-.004-.105-.027-.203-.109-.273-.25-.215-.418-.52-.738-.648-.098-.012-.176-.059-.242-.121-.289-.273-.605-.523-.934-.754-.055-.078-.141-.102-.227-.117-.555-.242-1.078-.559-1.656-.727-.934-.273-1.879-.453-2.852-.227-.086.02-.176.027-.27.012-.156-.016-.316-.047-.465.047l-.078.039c-.141.047-.309-.02-.438.098l-.078.035c-.301.109-.637.133-.898.344-.648.297-1.223.711-1.809 1.109-.176.016-.305.09-.34.281-.23.359-.586.605-.836.957-.293.41-.613.805-.855 1.25-.051.098-.102.203-.238.207-.719-1.102-1.582-2.059-2.773-2.668-.098-.152-.273-.145-.418-.203l.008-.016-.008.016c-.367-.234-.77-.367-1.207-.367h-.004c-.227-.168-.5-.078-.746-.125l-.074-.004c-.09.027-.18.031-.27 0v.004c-.051-.234.109-.273.277-.289.301-.031.594-.102.879-.203l17.195-3.555.473-.109c.145-.121.336-.016.488-.105l.281-.043c.098-.031.18-.008.273.086.012.398.109.813.164 1.23.059.449.102.906.211 1.344.141.563.113 1.145.273 1.703.137.484.172.996.223 1.488.082.805.336 1.586.305 2.398l.031.051.004.008c.086.199.043.41.066.613l.012.113c.207.324.152.703.207 1.059l.371 2.574c.148.953.258 1.918.414 2.867.168 1.004.324 2.008.445 3.016.023.195.137.41-.004.609l-9.777.371c-.402.109-.816.02-1.227.066-.52.055-1.043-.023-1.563.039l-25.957.668c-.066.074-.129-.008-.191-.008l-.137.004-.109-.004h-.133c-.164.086-.34.047-.508.035-.465-.031-.938.063-1.402-.023h-.164c-.059.059-.125.039-.191.016l-.258-.004-.105.004-.266-.004c-.07.039-.141.035-.211 0l-1.43-.004h-.262l-.105.004-.844-.008c-.117-.004-.227.055-.344.012l-.215-.012c-.047.043-.094.035-.145.008h-.445c-.094.039-.191.031-.289.008l-.184-.004-.055-.004-.262-.004h-.035l-.695.043c-.199-.184.063-.352.02-.531.289-.957.348-1.941.336-2.93.031-.176.055-.348-.059-.508l-.035-.133c.012-.129-.039-.238-.105-.34l-.031-.188c.031-.223.016-.434-.121-.594-.023-.125.043-.191.09-.266zm0 0" fill="rgb(23.921569%,55.686275%,55.686275%)"/><path d="M133.371 21.637l1.582 1.434c.191.102.348.246.496.398.828.859 1.73 1.645 2.559 2.508.078.078.156.16.273.199.219-.094.379-.266.531-.438.559-.645 1.207-1.199 1.777-1.828.098-.109.207-.23.379-.23.461-.473.922-.945 1.387-1.414l3.5-3.758 3.402 3.969c-.066.059-.141.074-.227.031-.277-.363-.598-.691-.922-1.023l-.051-.055c-.082-.105-.156-.215-.258-.301v.004c-.066-.137-.148-.262-.289-.332l-.109-.047-.109-.156-.051-.055-.125-.09-.891-.969c-.145-.094-.227.023-.309.105-1.348 1.41-2.758 2.766-4.125 4.156-.75.762-1.539 1.492-2.266 2.281-.094.102-.211.188-.289.391 2.266 2.273 4.598 4.516 6.922 6.75.238-.043.344-.223.488-.34l1.227-1.031 1.758-1.492.168.168c-1.215 1.172-2.426 2.344-3.641 3.512-.156-.004-.234-.133-.328-.227-.074-.066-.133-.148-.238-.168l-.012-.012c-.035-.117-.102-.203-.23-.23l-.012-.012c-.102-.332-.422-.398-.672-.551-.133-.066-.234-.168-.328-.277-.34-.285-.664-.586-.879-.984-.219-.355-.543-.617-.832-.906-.355-.359-.711-.715-1.078-1.063-.395-.371-.766-.77-1.184-1.117l-.551-.582c-.184-.145-.316-.359-.574-.395-.191-.035-.301-.191-.434-.313-.184-.164-.328-.379-.566-.496-.242.117-.391.344-.586.512-.547.605-1.168 1.133-1.711 1.746-.086.098-.195.176-.324.211l-.176.02c-.32.348-.773.59-.926 1.082-.191.289-.473.496-.707.746-.371.398-.785.754-1.129 1.184-.07.086-.16.156-.27.191l-.254.055c-.109.199-.266.383-.473.512-.133.086-.195.199-.195.352l-.031.082c-.207.277-.473.496-.715.742-.242.25-.375.254-.648.02-.289-.25-.57-.516-.84-.785-1.313-1.32-2.695-2.566-4.047-3.848-.535-.508-1.086-.996-1.613-1.512l-.617-.566c-.297-.277-.613-.527-.891-.82-.074-.078-.188-.137-.145-.273 2.25-2.172 4.5-4.348 6.75-6.516l1.34-1.281 3.188 3.004c.066.023.145.035.148.129zm0 0" fill="rgb(2.352941%,2.745098%,3.137255%)"/><path d="M117.977 41.023c1.805.539 3.375 1.441 4.566 2.938-2.074 1.922-5.496.777-8.078-2.73-1.34.465-2.621.867-2.754 2.727-.117 1.598-.934 2.977-2.09 4.242-.207-1.875.254-3.52 1.496-4.715 1.332-1.285.59-2.461.262-3.77-1.855.656-3.668.629-5.48.051l-.086.027c-1.039-.328-1.945-.895-2.723-1.652-.652-.637-1.238-1.336-1.602-2.191l-.152-.262c-.195-.43-.156-.563.25-.785.246-.137.516-.227.781-.324.113-.004.207-.066.305-.121l.246-.02c.387-.145.789-.113 1.188-.141 1.195.102 2.316.457 3.371 1.012 1.633.863 2.766 2.207 3.66 3.789l.152.262c.047.063.09.137.172.191.199.02.402-.023.605-.102.512-.199.98-.477 1.402-.828.129-.109.254-.242.457-.203.16.137.125.328.129.508.023.625.141 1.227.391 1.801.047.102.078.211.18.277.121.023.238-.02.352-.051.516-.137 1.039-.137 1.563-.172.082-.004.16.02.23.066.148.121.156.254.039.398l-.051.102c.074.059.125-.012.18-.043l.074-.031.188-.066c.113-.074.266-.059.371-.156.133-.039.266-.109.406-.027zm0 0" fill="rgb(3.529412%,16.078431%,65.882353%)"/><path d="M138.727 46.164c-.555-1.602-1.434-2.949-2.91-3.852-2.441 3.035-6.594 2.426-8.766-.211-1.672 1.316-2.586 3.063-2.992 5.332-.086-1.438-.672-2.465-1.402-3.453.836-.344 1.48-.902 2.082-1.523.078-.113.137-.242.262-.316l1.039-1.785.98 1.684c3.016-1.773 5.938-1.621 8.852.207.918-1.723 1.082-3.547 1.016-5.418l-.098-.961-.012-.109c.035-.039.07-.047.109-.008l.039.086.035.016-.012.023c1.547 3.121 4.031 4.73 6.965 4.234 1.387-.238 1.793-1.84 2.742-2.727.297-.277.527-.629.848-1.016.367 2.141.719 4.195 1.082 6.332-1.574-1.23-3.301-1.828-5.168-2.164-2.766-.492-4.109.648-4.34 3.816-.031.406-.047.809-.07 1.215-.09.215.012.453-.055.648-.129.109-.137-.09-.227-.051zm0 0" fill="rgb(3.529412%,16.078431%,65.882353%)"/><path d="M123.652 27.875c2.258 2.109 4.516 4.219 6.781 6.34l.973-.922c.129.168.129.168.094.332.094.008.184-.059.273-.008.211.137.371.328.535.512.082.242.293.336.496.438l.223.176c.141.051.242.008.324-.074.336-.32.766-.539 1.043-.918.305-.414.723-.68 1.125-.957.371-.258.66-.59.984-.895.16-.148.328-.262.539-.313-.547 1.262-1.074 2.531-1.652 3.777-.762 1.648-1.566 3.285-2.355 4.922l-.203.289c-1.496-2.434-3.219-4.602-5.184-6.578-.082-.082-.195-.137-.293-.199-.113.063-.191-.004-.27-.07-.098-.188-.301-.23-.461-.332-1.078-.688-2.227-1.223-3.469-1.543-1.207-.313-2.426-.32-3.66-.207-1.113.102-2.191.332-3.25.676-.164.051-.348.152-.5-.039-.059-.125 0-.227.078-.305.711-.688 1.406-1.395 2.141-2.059l.105-.059.086-.031.09-.016c.594-.164 1.219-.23 1.75-.582.266-.07.492-.227.75-.324.102-.039.203-.09.316-.074.117.016.199-.051.293-.102.773-.254 1.555-.5 2.297-.855zm0 0" fill="rgb(59.607843%,83.137255%,86.27451%)"/><path d="M111.641 50.195c-.73-.188-1.465-.375-2.195-.559 2.691-1.141 5.379-2.281 8.066-3.418l.219.078c.664-.23 1.191-.715 1.918-.688l.016-.309 1.359-.512v7.418c-.082.082-.172.07-.277.043-.195-.051-.395-.098-.598-.09l-.098-.02c-.242-.129-.496-.223-.77-.211l-.613-.121c-.082.016-.16.012-.242-.008-.551-.285-1.18-.273-1.762-.449-1.551-.93-3.258-1.172-5.023-1.156zm0 0" fill="rgb(59.607843%,83.137255%,86.27451%)"/><path d="M132.281 34.18l-.531-.523c-.055-.086-.152-.125-.219-.184-.07-.086-.051-.18-.051-.266l.008-.059c.27-.313.527-.645.891-.863.695-.695 1.391-1.395 2.082-2.09.305-.453.672-.84 1.137-1.133.672-.656 1.34-1.309 2.012-1.961.172-.078.258.047.359.141.195.188.344.422.59.535.285-.027.383-.391.688-.348.105-.016.16.059.227.121 1.086.996 2.125 2.043 3.184 3.066.129.125.262.254.348.418.246.602.336 1.266.641 1.824.125.02.168-.043.223-.086.172-.117.234-.398.52-.332l.336.289c.098.039.129.125.168.211l-2.492 2.832-2.238-7.023-3.117 2.836-3.93 3.371-.375-.316c-.094-.215-.32-.293-.457-.461zm0 0" fill="rgb(89.019608%,72.54902%,7.058824%)"/><path d="M104.23 48.41l-.98-1.582c-.082-.063-.141-.133-.164-.242-.098-.43-.152-.867-.219-1.305-.039-.273.07-.535.07-.809l-.016-.301c.164-.863.504-1.656.941-2.41.367-.637.844-1.184 1.379-1.676.188-.168.375-.348.66-.316l-.004-.004c.234 2.219.48 4.438.699 6.66.113 1.152.184 2.309.27 3.461-.922-.039-1.617-.559-2.301-1.105-.094-.035-.156-.109-.215-.184l.004.004-.125-.191zm0 0" fill="rgb(87.843137%,19.607843%,10.980392%)"/><path d="M125 42.141v.297l-.262.02c-2.035-1.516-4.293-1.98-6.762-1.434l-.41.098c-.09.094-.246 0-.328.117-.07.047-.141.082-.219.098l-.086.027c-.121.059-.23.09-.211-.117l.125-.316c.195-.41.527-.711.824-1.035 1.078-1.172 2.445-1.848 3.949-2.254 1.219-.328 2.453-.344 3.688-.043.102-.012.203-.004.289.063.102.262.047.398-.23.59-.348 1.273-.699 2.551-.367 3.891zm0 0" fill="rgb(87.843137%,19.607843%,10.980392%)"/><path d="M146.711 32.922l-.742.695c-2.254-2.48-4.492-4.941-6.727-7.402 2.172-2.195 4.523-4.57 6.902-6.973l.156.172c.145.309.41.535.594.816.055.09.156.176.059.297-.332-.129-.586-.078-.703.301.035.145-.043.25-.121.352-.355.281-.66.609-.961.945l-.035.074-.047.07-.027.031-.059.059-.102.07c-.199.105-.344.27-.473.449l-.047.063-.141.129-.047.059-.109.102-.063.043c-.098.023-.133.105-.168.184l-.055.059c-.27.23-.586.41-.781.727l-.055.059c-.273.18-.473.434-.691.664-.434.441-.914.836-1.285 1.34-.078.176.078.25.16.352.109.133.246.238.297.414.02.09.027.188.148.199l.07.043c.102.109.211.207.336.289l.051.066c.016.168.184.199.273.297.102.113.203.219.266.352l.254.094c.211.297.422.59.73.793l.078.039.059.059.043.07c.008.125.109.133.199.156l.066.043c.051.059.102.117.18.129l.172.098c.059.07.121.141.199.191l.254.258c.273.352.656.582.961.902.16.234.352.438.625.57.32-.172.48-.5.723-.746.148-.148.211-.406.48-.414l-.43 1.23c.148.422-.035.715-.363.957-.059.043-.086.105-.105.176zm0 0" fill="rgb(23.921569%,55.686275%,55.686275%)"/><path d="M131.98 48.699c-2.059.398-5.539-.883-6.258-2.254-.469-.898-.629-1.836.016-2.828 2.07 1.688 4.113 3.352 6.242 5.082zm0 0" fill="rgb(87.843137%,19.607843%,10.980392%)"/><path d="M118.398 51.707l.289.027c.211.125.438.176.688.16.242-.016.453.133.684.172l.082.02c.566.176 1.152.258 1.738.355l1.34.098.234-.063c.195-.008.395-.012.594-.004.102.004.23 0 .203.172l-.23.148c-1.813 1.023-2.848 2.633-3.473 4.77-.109-2.699-1.465-4.484-3.402-5.91.16-.184.645-.203.797-.031l-.016.051-.043.09.031-.059c.164-.121.324-.012.484.004zm0 0" fill="rgb(23.921569%,55.686275%,55.686275%)"/><path d="M125.598 37.719l-.262-.031c-.148-.035-.145-.16-.141-.266.074-1.359.359-2.645 1.285-3.707.105-.121.207-.254.402-.246.109.039.199.117.289.199l.184.129c.754 1.336.09 2.621-.215 3.887-.211.875-.668 1.691-1.125 2.793l-.551-2.016c-.063-.184.051-.328.117-.477.047-.098.098-.172.016-.266zm0 0" fill="rgb(3.529412%,16.078431%,65.882353%)"/><path d="M123.285 52.434v-.934c2.41-.633 4.766-1.254 7.156-1.883l.918.816c-2.461.633-4.867 1.25-7.273 1.863-.246.168-.5.277-.801.137zm0 0" fill="rgb(87.843137%,19.607843%,10.980392%)"/><path d="M147.609 30.559l-1.168 1.355-.738-.703.031-.066c.145-.027.254.035.352.129.098.09.207.16.328.188.09-.031.141-.094.188-.16.363-.52.785-.988 1.184-1.477.184-.227.406-.43.551-.691.273-.355.621-.652.805-1.074.23-.484.633-.832.941-1.254l.238-.277c.086-.07.059-.25.23-.238.18.07.242.223.277.375-.008.141-.102.188-.184.246l-3.035 3.648zm0 0" fill="rgb(2.352941%,2.745098%,3.137255%)"/><path d="M150.66 66.699l-1.426-9.945-.008-.18c.523.469.277 1.133.371 1.691.457 2.742.828 5.5 1.219 8.254.008.051-.102.121-.156.18zm0 0" fill="rgb(59.607843%,83.137255%,86.27451%)"/><path d="M149.145 55.84c-.426-2.672-.852-5.348-1.285-8.02-.016-.102-.129-.188-.195-.281l.355-.016c.379 2.813.75 5.566 1.125 8.316zm0 0" fill="rgb(59.607843%,83.137255%,86.27451%)"/><path d="M124.043 47.816c.301 1.152.137 2.082-.316 3.16-.145-1.141-.039-2.074.316-3.16zm0 0" fill="rgb(3.529412%,16.078431%,65.882353%)"/><path d="M150.645 26.91l.109-.254-.242-.359c-.234-.066-.34-.281-.48-.445l-1.383-1.648c-.055-.063-.09-.133-.102-.219l.016-.082c.52.531 1.047 1.059 1.563 1.594.223.23.43.48.703.785l.109.66-.293-.031zm0 0" fill="rgb(59.607843%,83.137255%,86.27451%)"/><path d="M146.109 21.113l.141-.285 2.313 3.074-.02.02c-.332-.113-.473-.426-.676-.664-.543-.625-1.066-1.27-1.621-1.883-.066-.074-.137-.152-.137-.262zm0 0" fill="rgb(59.607843%,83.137255%,86.27451%)"/><path d="M148.109 21.484l1.148.992.004.02c.242.426.629.742.918 1.137.117.164.355.273.297.539l-.047.035c-.773-.906-1.547-1.813-2.32-2.723zm0 0" fill="rgb(26.27451%,24.313725%,49.411765%)"/><path d="M124.199 52.676l-.73-.113c.172-.23.445-.156.672-.219.672-.113 1.34-.227 2.012-.344l-1.871.688-.082-.012zm0 0" fill="#693"/><path d="M129.227 51.352c-.297.379-.91 0-1.156.492l-.172-.008h-.063l-1.574.148 2.965-.633zm0 0" fill="#693"/><path d="M146.711 32.922l.551-.902c-.035.074-.441-.09-.082-.23l.691.008-1.156 1.125zm0 0" fill="rgb(59.607843%,83.137255%,86.27451%)"/><path d="M146.953 20.527l-.652-1.113.871.984c.055.035.113.066.113.145l.008.008c.109-.004.09.113.152.156l.047.055.02.043-.02.02-.539-.297zm0 0" fill="rgb(59.607843%,83.137255%,86.27451%)"/><path d="M121.879 52.441c-.598-.023-1.207 0-1.738-.355l.883.121.855.234zm0 0" fill="#693"/><path d="M138.094 67.176l2.789-.105-2.789.105zm0 0" fill="rgb(59.607843%,83.137255%,86.27451%)"/><path d="M138.727 46.164l.184.031.098-.629v1.805l-.281-1.207zm0 0" fill="rgb(23.921569%,55.686275%,55.686275%)"/><path d="M109.656 67.848l1.91-.012-1.91.012zm0 0" fill="#693"/><path d="M144.891 32.941l-.168-.211c.234.176.645.164.617.605l-.449-.395zm0 0" fill="rgb(26.27451%,24.313725%,49.411765%)"/><path d="M145.594 33.59l.566.395-.566-.395zm0 0" fill="rgb(26.27451%,24.313725%,49.411765%)"/><path d="M125.598 37.719l-.133.742-.098-.211.23-.531zm0 0" fill="rgb(26.27451%,24.313725%,49.411765%)"/><path d="M124.141 52.344l-.672.219-.25-.023.066-.105.801-.137.055.047zm0 0" fill="rgb(59.607843%,83.137255%,86.27451%)"/><path d="M149.215 56.461l-.066-.613.066.613zm0 0" fill="rgb(59.607843%,83.137255%,86.27451%)"/><path d="M136.789 35.867l.098.961-.098-.961zm0 0" fill="rgb(23.921569%,55.686275%,55.686275%)"/><path d="M147.492 20.824v-.063c.227.02.324.148.309.371l-.309-.309zm0 0" fill="rgb(26.27451%,24.313725%,49.411765%)"/><path d="M136.887 35.75l-.109.008-.098-.316.105-.035.102.344zm0 0" fill="rgb(23.921569%,55.686275%,55.686275%)"/><path d="M147.383 47.582l-.488.105.488-.105zm0 0" fill="rgb(59.607843%,83.137255%,86.27451%)"/><path d="M145.352 33.348c.238-.086.266.043.23.23l-.23-.23zm0 0" fill="rgb(26.27451%,24.313725%,49.411765%)"/><path d="M147.801 21.129l.258.301-.258-.301zm0 0" fill="rgb(26.27451%,24.313725%,49.411765%)"/><path d="M105.477 67.863l.344-.012-.344.012zm0 0" fill="#693"/><path d="M104.383 67.863l.289-.004-.289.004zm0 0" fill="#693"/><path d="M111.945 67.836l.191.008-.191-.008zm0 0" fill="#693"/><path d="M108.461 67.859l.211-.004-.211.004zm0 0" fill="#693"/><path d="M106.664 67.859l.105-.004-.105.004zm0 0" fill="#693"/><path d="M111.699 67.836h0zm0 0" fill="#693"/><path d="M105.117 67.859l.141-.008-.141.008zm0 0" fill="#693"/><path d="M109.301 67.863l.191-.016-.191.016zm0 0" fill="#693"/><path d="M106.945 67.855h0zm0 0" fill="#693"/><path d="M108.934 67.863l.109-.004-.109.004zm0 0" fill="#693"/><path d="M136.949 35.875l-.023-.039.023.039zm0 0" fill="rgb(23.921569%,55.686275%,55.686275%)"/><path d="M98.352 45.227c-1.711-3.539-.793-7.059 2.5-9.52l-.184-.031c-.426-.023-.809.164-1.184.313-.465.176-.941.34-1.395.551-.793.363-1.48.879-2.141 1.441-.512.43-.973.906-1.371 1.43-.359.477-.703.973-.941 1.531-.117.285-.234.578-.406.84-.207.316-.207.691-.313 1.035-.309.984-.305 2.004-.246 3.02.02.375.215.707.297 1.07-.035.07-.074.133-.145.027-2.117-2.832-2.648-5.895-1.316-9.227l.328-.746c.074-.063.16-.051.242-.027l.195.047.156.012.117.023.07.031c.07.051.148.02.227.016l.48.09c.168-.125.332-.273.43-.449.254-.461.656-.758 1.047-1.078.891-.73 1.887-1.23 3.016-1.457.234-.047.457-.074.684.016.082.051.172.066.27.039l.109.031.031.043.07-.063.164-.031.086.012c.328.121.672.176 1.02.176.281.082.449.34.727.488-.684-2.129-.738-4.191.508-6.113.613-.941 1.359-1.766 2.379-2.27.207.184.195.363.176.531-.074.613-.082 1.234-.203 1.84l.051.129c.566-.594 1.098-1.219 1.656-1.82.07-.145.168-.258.316-.32l.008-.008c.031-.246.254-.348.391-.516.539-.672 1.129-1.301 1.738-1.91l.953-.984c.063-.02.109-.059.125-.129l-.004.008c.09-.063.137-.156.195-.242h-.008c.09-.027.148-.102.219-.156.18-.129.367-.215.586-.09.102.059.219.023.328.055l.078.043c.324.281.582.602.609 1.055-.023.207-.16.348-.301.48-.738.703-1.371 1.504-2.063 2.254-.059.063-.152.113-.109.227.113.184.285.313.426.473.09.105.199.207.152.371-.176.23-.391.43-.598.633-.246.246-.434.543-.668.801-.031.039-.047.09-.043.176.211.402.641.598 1.008.863.855.734 1.707 1.473 2.438 2.34.324.383.773.645 1.113 1.023.078.086.188.156.195.293-.074.227-.262.355-.438.488-.863.652-1.73 1.301-2.586 1.969-.301.234-.395.211-.723-.094-1.012-.93-1.996-1.895-2.988-2.848-.738-.711-1.484-1.41-2.23-2.109-.078-.074-.148-.168-.313-.191-.391 1.098-.863 2.168-1.598 3.121.164.094.309.023.438.055.137.035.266-.02.395-.043.082-.012.16-.008.234.016.09.063.238.109.078.246l-.234.016-.266.109-1.141.496.152.551c.328 1.375.617 2.754.27 4.176l-.094.117c.008.406-.223.742-.309 1.125-.105.5-.297.98-.57 1.414-.25.391-.445.813-.707 1.195-.309.449-.684.836-1.039 1.238l-.211.219c-.125.125-.25.16-.398.047zm0 0" fill="rgb(87.843137%,19.607843%,10.980392%)"/><path d="M112.582 33.914c-1.262-1.188-2.527-2.379-3.793-3.566-.035-.172-.168-.301-.301-.352-.215-.082-.336-.25-.48-.395-.152-.152-.164-.336-.016-.484.234-.227.355-.543.645-.73l.43-.492.152-.094c.242 0 .371.184.523.324l2.059 1.957c.449.469.961.867 1.406 1.34.109.156.281.223.43.32.195-.023.285-.227.465-.27.066-.016.133-.02.199.016l.047.047-.027-.031c-.059-.063-.082-.137-.066-.223l.043-.074.078-.039c.27.023.391-.203.52-.363.121-.152.234-.266.41-.313.539-.641 1.094-1.266 1.891-1.852.133-.293.504-.586.82-.918.23-.242.527-.426.715-.719l.07-.047c.117-.051.207-.129.246-.254-.004-.191-.148-.332-.258-.426-.492-.414-.891-.918-1.391-1.324-.309-.25-.621-.5-.855-.828-.066-.09-.172-.102-.27-.121l-.07-.047c-.262-.301-.469-.66-.863-.816l-.066-.059c-.219-.438-.656-.656-.988-.98-.156-.152-.352-.262-.48-.449-.07-.105-.203-.121-.324-.137l-.074-.035-.039-.074-.004.082c-.277.398-.605.746-.984 1.047l-.164.059c-.191.391-.629.578-.789.992l-.074.051c-.23.066-.395-.016-.484-.227-.094-.215-.266-.336-.453-.445l-.004-.004c-.223-.078-.438-.207-.691-.176-.055.008-.094 0-.105-.063 1.195-1.332 2.391-2.66 3.637-4.043 1.98 1.84 3.945 3.656 5.902 5.48.828.77 1.641 1.555 2.461 2.336.02.289-.211.406-.387.559-.461.434-.91.879-1.383 1.305-.109.102-.207.219-.352.277-.328.137-.59.344-.738.68-.035.098-.113.16-.176.238l-.055.063c-.125.086-.195.246-.371.246l.004.027h.027l-.094.07c-.781.746-1.563 1.492-2.344 2.242.012.109-.043.195-.117.266-.766.703-1.488 1.453-2.23 2.156-.375-.043-.758-.387-.816-.711zm0 0" fill="rgb(2.352941%,2.745098%,3.137255%)"/><path d="M109.613 22.723l.797.238c-.395-.082-.785-.109-1.152.113l.066-.059.066-.047.223-.246zm0 0" fill="rgb(25.882353%,12.941176%,4.313725%)"/><path d="M133.371 21.637l-.148-.129.277-.055-.129.184zm0 0" fill="#693"/><path d="M109.262 23.074l-.191.242.191-.242zm0 0" fill="rgb(25.882353%,12.941176%,4.313725%)"/><path d="M133.672 21.258l-.164.188-.012-.156.176-.031zm0 0" fill="#693"/><path d="M109.074 23.309l-.125.129.125-.129zm0 0" fill="rgb(25.882353%,12.941176%,4.313725%)"/><path d="M109.391 22.969l-.066.047.066-.047zm0 0" fill="rgb(87.843137%,19.607843%,10.980392%)"/><path d="M150.477 24.172l-1.215-1.676 1.625 1.813.254.363-.664-.5zm0 0" fill="rgb(2.352941%,2.745098%,3.137255%)"/><path d="M140.969 23.68l-2.785 2.707c-1.059-1.086-2.145-2.199-3.23-3.316l2.672-3.035c1.133 1.238 2.238 2.441 3.344 3.645zm0 0" fill="rgb(23.921569%,55.686275%,55.686275%)"/><path d="M111.879 51.938l.367-.457 5.957 5.586-5.383 6.445c-2.387-2.234-4.43-4.145-6.574-6.156l2.527-2.414c.172.027.281.148.395.262.711.707 1.445 1.391 2.18 2.066.066.063.125.137.281.152.883-.98 1.773-1.996 2.691-3.012-.219-.352-.52-.59-.801-.844-.508-.465-.992-.949-1.512-1.398-.07-.063-.133-.129-.129-.23zm0 0" fill="rgb(25.882353%,12.941176%,4.313725%)"/><path d="M122.715 59.121l-.449-.48c1.48-1.711 2.949-3.414 4.457-5.164 2.008 1.91 4.043 3.727 5.906 5.707.453.484-.52.984-.871 1.43-1.07 1.34-2.203 2.625-3.359 3.988l-.406-.547c-.055-.168.066-.27.152-.371.395-.473.809-.93 1.184-1.422.074-.094.164-.18.207-.332-.258-.324-.543-.641-.922-.863-.262.102-.465.27-.68.418-.469.324-.973.574-1.52.734-.156.047-.313.086-.461-.023l-.426-.41c-.074-.133.031-.195.102-.273.086-.094.188-.18.242-.297l.047-.07.109-.129c.367-.449.785-.863 1.152-1.367-.883-.852-1.758-1.668-2.641-2.508-.305.238-.531.496-.738.766-.293.379-.621.723-.918 1.094-.047.055-.09.109-.168.121zm0 0" fill="rgb(25.882353%,12.941176%,4.313725%)"/><path d="M138.512 61.555l-2.141-1.906-.66-.633c1.352-1.637 2.691-3.266 4.035-4.891.227-.059.297.125.383.266.523.875 1.07 1.738 1.602 2.609l.328.512c.137.211.121.398-.059.574l-1.063 1.125c-.711.672-1.328 1.438-2.055 2.098-.109.102-.207.227-.371.246zm0 0" fill="rgb(23.921569%,55.686275%,55.686275%)"/><path d="M146.699 53.676l.609.961c.328.426.496.934.66 1.438.285.871.41 1.777.34 2.695-.023.355-.059.719-.176 1.063-.02.059-.02.152-.129.125.172-2.121-.129-4.141-1.48-5.848-1.711-2.16-3.988-2.781-6.629-2.289-.273.145-.582.176-.867.297-.703.297-1.375.645-1.93 1.184-.129.125-.305.199-.402.355h-.004l-.059.059v.004c-.398.324-.539.848-.863 1.211-.348.387-.52.844-.723 1.293-.211.449-.32.938-.398 1.426-.324.035-.215-.227-.293-.348l-.793-2.094c.629-.809 1.254-1.621 1.879-2.43.059-.176.215-.246.352-.332l1.816-1.102c.301-.176.66-.199.969-.355v-.012l.484-.121c.148-.129.352 0 .5-.113 1.754-.293 3.367.09 4.887.977l.195.117c.379.285.754.574 1.129.863.344.293.699.57.926.977zm0 0" fill="rgb(87.843137%,19.607843%,10.980392%)"/><path d="M111.879 51.938c.867.789 1.738 1.582 2.645 2.402-.996 1.121-1.949 2.184-3.168 3.551l-2.582-2.949 3.105-3.004zm0 0" fill="rgb(23.921569%,55.686275%,55.686275%)"/><path d="M144.781 64.762c-2.621 2.883-9.383 1.91-11.082-1.59-.086-.18-.215-.34-.324-.512l.02-.039c.027-.371.316-.621.434-.953.039-.105.043-.238.148-.32l.543-2.07c.172 1.422.613 2.66 1.383 3.77.109.078.18.184.23.305l.012.012.051.051.008.008c.133.086.254.188.293.355l.012.016c.063.008.102.043.109.109 2.516 2.242 5.262 2.289 8.164.859zm0 0" fill="rgb(87.843137%,19.607843%,10.980392%)"/><path d="M140.781 63.879l-1.656-1.574-.047-.063-.008-.008-.051-.055-.012-.008-.051-.055-.004-.008c-.125-.164.02-.258.105-.355.59-.684 1.27-1.273 1.898-1.922.402-.41.801-.828 1.199-1.246.234-.246.406-.242.582.047.379.621.805 1.219 1.145 1.863.051.102.102.203.078.352-.156.215-.352.426-.598.59l-.012.008-.047.035-.027.023c-.191.297-.453.531-.703.777-.516.508-.984 1.059-1.523 1.539-.07.066-.145.203-.27.059zm0 0" fill="rgb(87.843137%,19.607843%,10.980392%)"/><path d="M143.363 61.438l.555-.68-1.453-2.359c-1.199 1.27-2.355 2.492-3.512 3.711l-.441-.555c1.281-1.16 2.559-2.316 3.832-3.465-1.004-1.527-1.801-2.746-2.598-3.965.313-.273.281-.832.777-.949l.027.031c-.059.402.219.676.387.984.48.867 1.059 1.672 1.566 2.52.055.09.117.168.258.238.375-.344.801-.656.969-1.199l.051-.066.676.703c.012.152-.094.238-.188.332l-.789.793c-.09.094-.184.188-.223.359.105.273.266.555.438.824l.695 1.105c.074.113.18.23.078.387-.332.445-.508 1.039-1.105 1.25zm0 0" fill="rgb(25.882353%,12.941176%,4.313725%)"/><path d="M122.715 59.121l1.738-2.203c.988.93 1.938 1.824 2.902 2.734l-1.27 1.445c-.059.02-.105.059-.121.121l-.004.008c-.113.066-.223.137-.285.258-.078.152-.199.188-.352.145l-.023-.023c-.004-.125-.109-.148-.191-.195-.801-.762-1.598-1.523-2.395-2.289zm0 0" fill="rgb(23.921569%,55.686275%,55.686275%)"/><path d="M144.469 60.188l-1.469-2.453 1.457-1.348 1.777 1.98-1.766 1.82zm0 0" fill="rgb(23.921569%,55.686275%,55.686275%)"/><path d="M125.953 62.195c1.039-.133 1.84-.75 2.672-1.34l1.133 1.066-1.766 2.133-2.039-1.859zm0 0" fill="rgb(23.921569%,55.686275%,55.686275%)"/><path d="M148.004 59.957c.469-1.762.203-3.434-.598-5.043l-.098-.277c.609.605.762 1.418.922 2.207.266 1.328.348 2.656-.422 3.879l.195-.766zm0 0" fill="#693"/><path d="M134.355 57.301l.207.332c.348-1.516.914-2.875 2.07-3.914-.961 1.422-1.949 2.832-2.082 5.164l-.195-1.582zm0 0" fill="rgb(25.882353%,12.941176%,4.313725%)"/><path d="M136.695 53.656c.828-1.031 1.922-1.594 3.199-1.836-.238.09-.48.168-.707.277-.258.125-.512.266-.754.418-.586.375-1.16.758-1.738 1.141zm0 0" fill="rgb(25.882353%,12.941176%,4.313725%)"/><path d="M140.781 63.879c.832-.789 1.668-1.582 2.5-2.375l-2.363 2.477-.137-.102zm0 0" fill="rgb(25.882353%,12.941176%,4.313725%)"/><path d="M115.93 64.957c-.922.52-1.887.852-2.965.695l2.965-.695zm0 0" fill="#693"/><path d="M140.523 53.176l.199-.469c.633.57 1.348.914 1.723 1.645l-.039.016c-.152.023-.238-.086-.336-.172-.336-.281-.629-.605-.957-.891-.082-.074-.172-.141-.262-.176l-.309.059zm0 0" fill="rgb(25.882353%,12.941176%,4.313725%)"/><path d="M110.727 65.465l-1.426-.301-.695-.551 2.121.852zm0 0" fill="#693"/><path d="M117.82 51.77l.078-.219-.754.102-.48-.301 1.734.355-.574.066zm0 0" fill="#693"/><path d="M112.66 65.656c-.527.301-1.02.051-1.516-.105l1.516.105zm0 0" fill="#693"/><path d="M142.5 54.41c.43.215.789.504.98.969l-.039.02c-.113.02-.191-.047-.262-.125-.23-.262-.555-.438-.695-.781l.016-.082zm0 0" fill="rgb(25.882353%,12.941176%,4.313725%)"/><path d="M133.977 61.348l-.582 1.273.582-1.273zm0 0" fill="rgb(25.882353%,12.941176%,4.313725%)"/><path d="M129.164 51.969c.461-.078.875.02 1.207.367l-1.207-.367zm0 0" fill="#693"/><path d="M125.324 61.629l.637-.402-.434.559-.203-.156zm0 0" fill="#693"/><path d="M128.414 51.844l.746.125-.746-.125zm0 0" fill="#693"/><path d="M136.496 63.777l-.293-.355c.23.008.305.145.293.355zm0 0" fill="rgb(25.882353%,12.941176%,4.313725%)"/><path d="M143.48 55.379l.301.305-.02.02c-.207.004-.309-.098-.301-.305zm0 0" fill="rgb(25.882353%,12.941176%,4.313725%)"/><path d="M130.371 52.336l.418.203-.418-.203zm0 0" fill="#693"/><path d="M119.387 61.992l-.203.258.203-.258zm0 0" fill="#693"/><path d="M119.156 62.285l-.18.266.18-.266zm0 0" fill="#693"/><path d="M136.133 63.352l-.23-.305.23.305zm0 0" fill="rgb(25.882353%,12.941176%,4.313725%)"/><path d="M125.109 61.41l.191.191-.191-.191zm0 0" fill="#693"/><path d="M124.199 52.676l.082.012-.262.105.18-.117zm0 0" fill="rgb(23.921569%,55.686275%,55.686275%)"/><path d="M119.52 61.758l-.09.141.09-.141zm0 0" fill="#693"/><path d="M136.617 63.902l-.109-.109.109-.078v.188zm0 0" fill="rgb(25.882353%,12.941176%,4.313725%)"/><path d="M128.07 51.84h0zm0 0" fill="#693"/><path d="M127.836 51.836l-.07-.09.047-.035.086.125h-.063zm0 0" fill="rgb(23.921569%,55.686275%,55.686275%)"/><path d="M144.883 64.68l-.039.023.039-.023zm0 0" fill="rgb(87.843137%,19.607843%,10.980392%)"/><path d="M136.633 53.715l.059-.059-.059.059zm0 0" fill="rgb(25.882353%,12.941176%,4.313725%)"/><path d="M136.195 63.414l-.051-.051.051.051zm0 0" fill="rgb(25.882353%,12.941176%,4.313725%)"/><path d="M139.078 62.242l.047.063-.047-.063zm0 0" fill="rgb(25.882353%,12.941176%,4.313725%)"/><path d="M143.305 61.48l.047-.035-.047.035zm0 0" fill="rgb(25.882353%,12.941176%,4.313725%)"/><path d="M139.02 62.18l.051.055-.051-.055zm0 0" fill="rgb(25.882353%,12.941176%,4.313725%)"/><path d="M138.957 62.117l.055.055-.055-.055zm0 0" fill="rgb(25.882353%,12.941176%,4.313725%)"/><path d="M119.414 61.926l-.027.066.027-.066zm0 0" fill="#693"/><path d="M142.441 54.352l.059.059-.016.012-.051-.055zm0 0" fill="rgb(25.882353%,12.941176%,4.313725%)"/><path d="M146.699 53.676l-.926-.977c.445.195.789.484.926.977zm0 0" fill="#693"/><path d="M138.578 50.988l-.969.355.969-.355zm0 0" fill="#693"/><path d="M135.793 52.445l-.352.328c-.023-.258.129-.332.352-.328zm0 0" fill="#693"/><path d="M139.563 50.742l-.5.113.5-.113zm0 0" fill="#693"/><path d="M139.063 50.855l-.484.121.484-.121zm0 0" fill="#693"/><path d="M144.645 51.836l-.195-.117.195.117zm0 0" fill="#693"/><path d="M129.84 20.898l.207-.199c.121-.055.184.035.258.102l1.168 1.086c.426.371.797.801 1.219 1.176.957.852 1.832 1.789 2.793 2.637.207.18.203.363-.004.535l-.008.008-.102.125-.016.016-.035.039-.016.023c-.078.039-.039.176-.152.184l-.016.02-.07.082-.031.047c-.039.113-.098.207-.223.242l-.121.09c-.223.023-.34-.156-.488-.27-.914-.703-1.777-1.465-2.699-2.156-.113-.086-.219-.188-.418-.207-.832.965-1.664 1.957-2.441 2.969.055.195.18.273.289.363.938.766 1.859 1.555 2.813 2.309.121.094.285.184.137.383l-.359.434c-.047.141-.164.219-.273.309l-.039.051c-.043.203-.176.324-.352.41-.457.188-.555-.34-.871-.445-.438-.203-.762-.551-1.102-.883l-.129-.125c-.223.004-.309-.207-.461-.309-.266-.176-.516-.379-.742-.609l-.016-.055c-.234-.117-.465-.234-.594-.484l-2.32-1.875c1.457-1.699 2.891-3.375 4.324-5.051.098-.137.191-.277.348-.355l.016-.012c.152-.219.309-.441.527-.602zm0 0" fill="rgb(89.019608%,72.54902%,7.058824%)"/><path d="M131.883 30.5c-.934-.813-1.867-1.625-2.801-2.434l-.652-.551c.891-1.086 1.77-2.16 2.691-3.289 1.207.973 2.387 1.926 3.57 2.883l-2.809 3.391zm0 0" fill="rgb(25.882353%,12.941176%,4.313725%)"/><path d="M121.152 26.996l.789.727 1.145-.367.566.52c-.668.574-1.547.637-2.316.953l-.219.098-1.113.371c-.496.23-1.023.363-1.543.492-.098-.051-.055-.125-.043-.191l.109-.078c.098-.074.188-.148.223-.273.199-.27.422-.508.727-.66l1.676-1.59zm0 0" fill="rgb(89.019608%,72.54902%,7.058824%)"/><path d="M135.48 26.234l.164-.285-5.598-5.25c.828.148 1.188.902 1.738 1.395 1.309 1.176 2.559 2.426 3.855 3.668-.039.137.191.391-.16.473zm0 0" fill="rgb(25.882353%,12.941176%,4.313725%)"/><path d="M139.273 27.48l-.023-.086c.836.332 1.289 1.109 1.91 1.688.82.758 1.559 1.613 2.332 2.426-.051.035-.105.031-.164.008-.188-.113-.32-.273-.387-.484l-3.668-3.551zm0 0" fill="rgb(25.882353%,12.941176%,4.313725%)"/><path d="M143.402 31.484l.09.023.895.934-.453.387-.109-.039c-.238-.359-.402-.754-.504-1.176-.016-.051 0-.121.082-.129zm0 0" fill="rgb(87.843137%,19.607843%,10.980392%)"/><path d="M135.598 29.063l-1.137 1.133c.23-.531.574-.941 1.137-1.133zm0 0" fill="rgb(25.882353%,12.941176%,4.313725%)"/><path d="M127.559 29.332c.398.309.801.613 1.203.918l-.055.16-1.148-1.078zm0 0" fill="rgb(25.882353%,12.941176%,4.313725%)"/><path d="M132.379 32.285l-.848.906c-.027.039-.043.098-.113.059l.688-.945.273-.02zm0 0" fill="rgb(25.882353%,12.941176%,4.313725%)"/><path d="M128.887 30.375l1.102.883c-.52-.102-.805-.5-1.102-.883zm0 0" fill="rgb(25.882353%,12.941176%,4.313725%)"/><path d="M131.418 33.25l.113-.059.219.465h-.238l-.105-.363.012-.043zm0 0" fill="rgb(92.54902%,87.058824%,89.019608%)"/><path d="M126.949 28.793l.59.484c-.273-.066-.551-.129-.59-.484zm0 0" fill="rgb(25.882353%,12.941176%,4.313725%)"/><path d="M129.84 20.898l-.527.602.527-.602zm0 0" fill="rgb(25.882353%,12.941176%,4.313725%)"/><path d="M130.859 31.703l.352-.41c.051.281-.07.414-.352.41zm0 0" fill="rgb(25.882353%,12.941176%,4.313725%)"/><path d="M129.297 21.512l-.348.355.348-.355zm0 0" fill="rgb(25.882353%,12.941176%,4.313725%)"/><path d="M131.25 31.242l.273-.309-.273.309zm0 0" fill="rgb(25.882353%,12.941176%,4.313725%)"/><path d="M134.813 27.02l.223-.242-.223.242zm0 0" fill="rgb(25.882353%,12.941176%,4.313725%)"/><path d="M135.152 26.629l.152-.184-.152.184zm0 0" fill="rgb(25.882353%,12.941176%,4.313725%)"/><path d="M147.441 20.707l-.148-.156.148.156zm0 0" fill="rgb(26.27451%,24.313725%,49.411765%)"/><path d="M135.371 26.367l.102-.125.027.098-.129.027zm0 0" fill="rgb(25.882353%,12.941176%,4.313725%)"/><path d="M147.285 20.543l-.113-.145.113.145zm0 0" fill="rgb(26.27451%,24.313725%,49.411765%)"/><path d="M135.066 26.73l.07-.082-.07.082zm0 0" fill="rgb(25.882353%,12.941176%,4.313725%)"/><path d="M135.32 26.422l.035-.039-.035.039zm0 0" fill="rgb(25.882353%,12.941176%,4.313725%)"/><path d="M116.723 41.246l.215.117-.715.289.5-.406zm0 0" fill="rgb(26.27451%,24.313725%,49.411765%)"/><path d="M117.223 41.211l.344-.09-.332.133-.059-.008.047-.035zm0 0" fill="rgb(26.27451%,24.313725%,49.411765%)"/><path d="M117.223 41.211l.012.043-.215.082.203-.125zm0 0" fill="rgb(26.27451%,24.313725%,49.411765%)"/><path d="M118.418 29.598l.035.16 1.551-.461c-.555.395-1.195.516-1.852.566l.266-.266zm0 0" fill="rgb(92.54902%,87.058824%,89.019608%)"/><path d="M132.281 34.18l.457.461-.457-.461zm0 0" fill="rgb(92.54902%,87.058824%,89.019608%)"/><path d="M121.117 28.926l.219-.098-.219.098zm0 0" fill="rgb(92.54902%,87.058824%,89.019608%)"/><path d="M118.09 29.961l.094-.07-.094.07zm0 0" fill="rgb(92.54902%,87.058824%,89.019608%)"/><path d="M104.352 48.598l.215.184-.215-.184zm0 0" fill="rgb(59.607843%,83.137255%,86.27451%)"/><path d="M120.059 52.066l-1.371-.332 1.371.332zm0 0" fill="#693"/><path d="M143.402 31.484l.531 1.344-.332.359-.66-2.156.461.453zm0 0" fill="rgb(92.54902%,87.058824%,89.019608%)"/><path d="M141.352 27.07c.004-.367-.668-.379-.449-.859l.211.094.082.098c.102.219.262.379.473.488l.074.031.113.102.043.059.047.094.047.051.121.078.051.063c.035.168.168.234.305.301l.051.074c.023.078.016.152-.043.215-.27.051-.383-.129-.488-.324v.008c-.145-.078-.273-.172-.34-.332l-.008-.004c-.148-.012-.227-.113-.289-.23zm0 0" fill="rgb(2.352941%,2.745098%,3.137255%)"/><path d="M141.09 26.324l-.188-.113 1.297-1.301c.059-.047.113-.043.16.016l-.082.117c-.012.152-.117.258-.211.355-.313.324-.582.688-.977.926zm0 0" fill="rgb(25.882353%,12.941176%,4.313725%)"/><path d="M146.168 21.363l-1.094.805 1.035-1.055.18.195c-.004.098-.043.117-.121.055zm0 0" fill="rgb(2.352941%,2.745098%,3.137255%)"/><path d="M145.703 31.211l-.945-.934.027-.039c.117-.066.234-.051.289.066.102.215.309.27.492.363.246.125.289.234.188.5l-.051.043zm0 0" fill="rgb(2.352941%,2.745098%,3.137255%)"/><path d="M141.988 27.633l.453.332.043.008c.148.121.32.223.359.434l-.02.035-.281.016-.555-.824zm0 0" fill="rgb(59.607843%,83.137255%,86.27451%)"/><path d="M143.656 29.27c-.457-.094-.672-.434-.832-.828v-.004c.25-.051.301.223.477.289l.063.051c.047.086.105.156.191.203l.055.055c.039.074.082.145.047.234zm0 0" fill="rgb(59.607843%,83.137255%,86.27451%)"/><path d="M143.656 29.27l-.113-.215.016-.023c.281-.066.875.5.824.785l-.035.023-.152-.066c-.109-.016-.172-.086-.211-.188h.008c-.117-.063-.273-.082-.285-.262l-.023.004v.023l-.066-.066.023.004zm0 0" fill="rgb(2.352941%,2.745098%,3.137255%)"/><path d="M143.801 23.453l-.848.797.848-.797zm0 0" fill="rgb(2.352941%,2.745098%,3.137255%)"/><path d="M142.359 24.926l-.16-.016.762-.668-.602.684zm0 0" fill="rgb(2.352941%,2.745098%,3.137255%)"/><path d="M144.922 22.348l-.57.551.57-.551zm0 0" fill="rgb(2.352941%,2.745098%,3.137255%)"/><path d="M143.707 29.324l.285.262h-.285v-.262zm0 0" fill="rgb(59.607843%,83.137255%,86.27451%)"/><path d="M141.352 27.07l.289.234-.234.027-.055-.262zm0 0" fill="rgb(59.607843%,83.137255%,86.27451%)"/><path d="M141.648 27.309l.34.332-.34-.332zm0 0" fill="rgb(59.607843%,83.137255%,86.27451%)"/><path d="M144.758 30.277l-.242-.242.035-.039c.219-.035.293.055.223.266zm0 0" fill="rgb(2.352941%,2.745098%,3.137255%)"/><path d="M144.047 23.207l-.242.242.242-.242zm0 0" fill="rgb(2.352941%,2.745098%,3.137255%)"/><path d="M144.348 22.902l-.18.184.18-.184zm0 0" fill="rgb(2.352941%,2.745098%,3.137255%)"/><path d="M144.516 30.035l-.168-.195v-.004c.164-.051.223.012.188.176zm0 0" fill="rgb(2.352941%,2.745098%,3.137255%)"/><path d="M143.984 29.586l.211.191-.176-.02-.035-.172zm0 0" fill="rgb(59.607843%,83.137255%,86.27451%)"/><path d="M144.168 23.082l-.125.125.125-.125zm0 0" fill="rgb(2.352941%,2.745098%,3.137255%)"/><path d="M145.016 22.227l-.066.09.066-.09zm0 0" fill="rgb(2.352941%,2.745098%,3.137255%)"/><path d="M145.078 22.168l-.066.063.066-.063zm0 0" fill="rgb(2.352941%,2.745098%,3.137255%)"/><path d="M143.617 29.285l.066-.016v.082l-.066-.066zm0 0" fill="rgb(59.607843%,83.137255%,86.27451%)"/><path d="M117.809 51.785l.012-.016h.004zm0 0" fill="#693"/><path d="M144.535 30.012l-.188-.176c-.16-.371-.414-.648-.805-.781h.008c-.07-.094-.121-.203-.25-.234l.008-.012c-.293-.273-.539-.602-.859-.848l-.004.004.051-.27c.176.008.297-.074.406-.207.41-.492.809-.988 1.234-1.461.109-.121.215-.246.395-.25.188.059.254.227.336.375.477.871.922 1.758 1.387 2.633l.395.719c.141.262.129.492-.07.73-.191.23-.383.461-.539.703.039.172.145.242.297.316.211-.188.406-.402.59-.629.332-.418.676-.832 1.023-1.238.086-.102.16-.215.293-.254l.086.016-1.859 2.477-.715-.457c-.086-.563-.652-.605-.98-.906l-.238-.25zm0 0" fill="rgb(25.882353%,12.941176%,4.313725%)"/><path d="M146.168 21.363l.121-.055c.754.871 1.504 1.742 2.254 2.613.656.793 1.313 1.586 1.969 2.375l-.094.309c-1.273-1.566-2.547-3.133-3.82-4.703l-.43-.539zm0 0" fill="rgb(26.27451%,24.313725%,49.411765%)"/><path d="M149.004 28.242l.199-.164-.875 1.07-.035-.031c.113-.391.301-.727.711-.875zm0 0" fill="rgb(25.882353%,12.941176%,4.313725%)"/><path d="M113.383 21.438l.082.016c.305.035.434.313.633.484.418.367.883.688 1.211 1.152l.016.016c.199.043.309.203.441.34.156.16.336.305.461.5l.004.004c.344.082.484.41.723.613.434.371.863.742 1.262 1.152.293.301.613.57.898.895-.035.199-.156.316-.344.371l-.047.031c-.34.516-.844.871-1.27 1.301-.695.703-1.406 1.398-2.125 2.074-.309.289-.531.699-.965.848l-.07.031c-.188.094-.395.148-.574.266-.191.117-.391.059-.574-.047l-1.391-1.324c-.016-.199.141-.266.273-.324 1.047-.445 2.109-.855 3.137-1.344.742-.348 1.492-.645 2.266-.898.129-.043.25-.133.336-.297-.211-.285-.457-.563-.703-.836-.32-.352-.613-.723-.898-1.102-.348-.453-.703-.906-1.105-1.313-.199-.141-.219-.406-.395-.563-.191-.258-.406-.5-.594-.73-.184-.016-.281.086-.383.164-.852.68-1.758 1.293-2.555 2.047-.277.258-.586.496-.93.672-.156.082-.277.203-.355.363l-.047.074-.059.063c-.313.176-.477.551-.852.641l-.027.016c.082.031.043.074.02.113-.129.063-.25.207-.398.035.848-.977 1.695-1.953 2.539-2.934-.004-.25.168-.352.363-.434l.012-.012c.273-.406.621-.746.977-1.078l.977-1.043zm0 0" fill="rgb(89.019608%,72.54902%,7.058824%)"/><path d="M109.148 27.758l.102.07c-.184.723-1.766.816-.902 2.004.133.18.488.176.445.516l-1.473-1.223 1.828-1.367zm0 0" fill="rgb(25.882353%,12.941176%,4.313725%)"/><path d="M111.387 23.574l-.363.434-.609-1.043c.492-.066.426.762.973.609zm0 0" fill="rgb(25.882353%,12.941176%,4.313725%)"/><path d="M114.363 31.234l4.363-4.223-1.641 1.934c.004 0-.121-.059-.168-.02-.563.488-1.113.992-1.93 1.727l.145-.016c-.242.242-.328.648-.77.598zm0 0" fill="rgb(25.882353%,12.941176%,4.313725%)"/><path d="M118.77 26.98l.305-.328c-.949-.898-1.895-1.801-2.844-2.703l.629.059c.645.719 1.406 1.566 2.156 2.422.074.086.141.27.098.336-.063.105-.223.145-.344.215zm0 0" fill="rgb(25.882353%,12.941176%,4.313725%)"/><path d="M115.309 23.09l-1.844-1.637c.758.379 1.418.875 1.844 1.637zm0 0" fill="rgb(25.882353%,12.941176%,4.313725%)"/><path d="M113.145 31.484l1.148-.219.004.016c-.02.117-.066.211-.199.227l-.391.453-.563-.477zm0 0" fill="rgb(59.607843%,83.137255%,86.27451%)"/><path d="M112.375 22.484l-.977 1.078c.215-.461.508-.848.977-1.078zm0 0" fill="rgb(25.882353%,12.941176%,4.313725%)"/><path d="M116.227 23.945l-.902-.84c.5.063.684.469.902.84zm0 0" fill="rgb(25.882353%,12.941176%,4.313725%)"/><path d="M119.477 28.582l-.691.711-.109.02.199-.41.602-.32zm0 0" fill="rgb(25.882353%,12.941176%,4.313725%)"/><path d="M114.098 31.508l.199-.227.066.266v-.004l-.266-.035zm0 0" fill="rgb(25.882353%,12.941176%,4.313725%)"/><path d="M118.676 29.313l.109-.02-.258.227.148-.207zm0 0" fill="rgb(92.54902%,87.058824%,89.019608%)"/><path d="M113.383 21.438l-.012.012-.02-.008.031-.004zm0 0" fill="rgb(25.882353%,12.941176%,4.313725%)"/><path d="M114.371 31.555l-.008-.008zm0 0" fill="rgb(25.882353%,12.941176%,4.313725%)"/><path d="M128.141 58.285c-.887-.824-1.77-1.652-2.68-2.504l1.215-1.449 2.914 2.758-1.074 1.203c-.125.105-.254.078-.375-.008zm0 0" fill="rgb(23.921569%,55.686275%,55.686275%)"/><path d="M130.449 57.926l1.492 1.395-1.203 1.453-1.094-.988c.434-.563.668-1.188.805-1.859zm0 0" fill="rgb(23.921569%,55.686275%,55.686275%)"/><path d="M128.141 58.285l.375.008-.172.219-.203-.227zm0 0" fill="#693"/><path d="M125.965 61.219l.121-.125-.121.125zm0 0" fill="#693"/><path d="M142.434 54.367l.051.051.977.98.301.305c.078.746-.688.902-1.012 1.582-.832-1.324-1.594-2.535-2.355-3.75l.148-.348.254-.273 1.637 1.453zm0 0" fill="rgb(87.843137%,19.607843%,10.980392%)"/><path d="M116.879 33.746c.348 1.598-1.246 4.137-2.887 4.613-.434-2.043 1.129-4.559 2.887-4.613zm0 0" fill="rgb(3.529412%,16.078431%,65.882353%)"/><path d="M149.004 28.242l-.711.875-1.949 2.352-.496-.48.879-1.113c-.727-1.355-1.445-2.695-2.199-4.109l-1.809 2.094-.223-.164-.023-.023c-.199-.02-.301-.148-.348-.332l-.023-.023c-.066-.008-.125-.027-.117-.117l-.047-.047-.043.012-.016-.07-.016-.02c-.066-.004-.098-.043-.109-.102l-.02-.016c-.254-.113-.426-.313-.57-.547l-.074-.086 1.188-1.281c1.148-.859 2.297-1.719 3.539-2.652 1.07 1.965 2.129 3.91 3.188 5.852zm0 0" fill="rgb(89.019608%,72.54902%,7.058824%)"/><path d="M141.164 26.41l.57.547c-.32-.043-.512-.223-.57-.547zm0 0" fill="rgb(25.882353%,12.941176%,4.313725%)"/><path d="M142.125 27.34l.348.332c-.262.043-.371-.074-.348-.332zm0 0" fill="rgb(25.882353%,12.941176%,4.313725%)"/><path d="M141.984 27.199l.117.117-.184.016.066-.133zm0 0" fill="rgb(25.882353%,12.941176%,4.313725%)"/><path d="M141.754 26.973l.109.102-.109-.102zm0 0" fill="rgb(25.882353%,12.941176%,4.313725%)"/><path d="M141.879 27.094l.059.059-.059-.059zm0 0" fill="rgb(25.882353%,12.941176%,4.313725%)"/><path d="M142.449 27.961c.477.086.633.504.859.848l-.48-.371-.379-.477zm0 0" fill="rgb(2.352941%,2.745098%,3.137255%)"/><path d="M143.301 28.82l.25-.055v.289l-.25-.234zm0 0" fill="rgb(2.352941%,2.745098%,3.137255%)"/><path d="M143.875 27.961l-.461.59-.379-.355 1.469-1.75c.594 1.102 1.16 2.145 1.746 3.227l-.793 1.035c-.535-.934-1.035-1.797-1.582-2.746zm0 0" fill="rgb(89.019608%,72.54902%,7.058824%)"/><path d="M115.043 23.938c.152.82-.117 1.527-.637 2.195 1.379-.367 2.426.078 3.301 1.188-1.445.703-2.758.512-4.043-.387-.191 1.336-.715 2.402-1.984 3.027-.254-1.207.301-2.082 1.156-2.938-1.418.273-2.723.438-3.973-.215l.828-.758.063-.051-.004.008c.246-.223.523-.359.863-.34.453.012.906-.004 1.355-.004.516-.051.918.242 1.367.484.008-.246.027-.465.055-.684.066-.574.309-1.066.719-1.465.203-.195.344-.477.648-.559l.285.496zm0 0" fill="rgb(87.843137%,19.607843%,10.980392%)"/><path d="M109.754 26l-.063.055.063-.055zm0 0" fill="rgb(92.54902%,87.058824%,89.019608%)"/><path d="M110.602 25.766l1.406-.012-1.406.012zm0 0" fill="rgb(25.882353%,12.941176%,4.313725%)"/></g></g></svg>