<svg xmlns="http://www.w3.org/2000/svg" width="198pt" height="82pt" viewBox="0 0 198 82"><g><path d="M122.379 42.531c1.848.43 3.043-3.809 4.145-5.996 1.402-2.781 2.672-4.234 3.891-5.777 1.316-1.664 3.641-3.621 5.691-4.801 2.43-1.398 5.648-2.609 4.945-4.051-3.156-6.449-11.715 1.406-14.723 4.844-2.77 3.164-11.277 14.086-3.949 15.781zm33.875-7.805c-3.695.109-6.23 2.848-5.945 6.254.309 3.637 2.547 5.227 6.09 5.148 3.254-.082 5.879-2.746 5.52-5.809-.402-3.379-2.465-5.293-5.664-5.594zm23.941 10.531c-1.723 9.934-2.598 12.324-9.699 17.371-.949.477-2.668 1.863-3.695 2.871-1.383 1.355-1.508 5.82.102 9.34 1.039 2.848-.695 5.359-2.656 5.863-3.242.621-8.051.621-10.258.164-2.441-.352-3.121-2.875-1.926-6.281.672-2.848-.223-6.676-2.828-6.969-2.406-.266-7.328-.109-8.875-.188-3.418-.18-4.398 4.402-3.293 7.555.914 2.594-.004 5.445-1.586 5.641-2.813.699-7.879.578-10.324.102-1.578-.305-3.344-2.719-2.305-6.125.871-3.051 2.309-6.68-1.211-10.094-5.527-5.367-7.164-7.324-9.082-15.824-.48-2.141-.148-6.16-.535-6.203-.391-.043-1.273 9.461-6.859 9.035-6.301-.477-5.926-15.285-2.75-15.012 2.551.219 1.938 9.09 3.102 8.965.715.133 1.375-11.066 6.559-8.73.48-1.625.832-3.309 1.5-4.855.617-1.438.352-1.063.961-2.277 5.543.273 14.102-3.426 14.254-15.117 6.68-2.32 9.859-2.684 16.828-1.215 2.156.805 3.914 1.09 4.879-1.172 1.254-2.922 5.285-11.297 11.27-11.281 1.59-.375 1.906 6.551 1.867 8.117-.082 3.234-.012 6.477-.148 9.711-.086 1.984-.797 3.422.574 4.918 3.516 4.797 5.227 9.555 5.82 15.516.371 3.684.891 3.684 4.848 3.688 3.324 0 6.012-.641 5.469 2.488zm0 0" fill="rgb(23.921569%,55.686275%,55.686275%)"/><path d="M126.383 18.711c1.133-5.891-1.75-12.488-8.102-14.008-5.992-1.434-12.102 1.766-14.098 7.379-2.703 7.605 3.051 15.039 11.355 15.285 2.91.086 9.707-2.715 10.844-8.656zm0 0" fill="rgb(92.941176%,75.294118%,40%)"/><path d="M115.957 8.254c-1.367 0-2.375.359-3.012 1.078-.641.707-.957 1.715-.957 3.023v11.121h1.816v-5.309h.004v-.305h3.906v-1.527h-3.906v-.301h-.004v-1.227h3.91v-1.535h-3.91v-.879c0-.785.172-1.41.512-1.867.336-.469.93-.707 1.777-.707.414 0 .77.043 1.055.121.285.063.508.137.664.215l.332-1.57c-.156-.066-.426-.137-.816-.215-.379-.082-.836-.117-1.371-.117zm0 0" fill="rgb(24.705882%,24.705882%,24.705882%)"/><path d="M30.102 80.543c-.645-.496-3.668-2.906-6.723-5.355l-5.555-4.457v-2.02c.004-3.758 1.945-45.031 2.152-45.676.219-.699 1.777-1.539 2.848-1.539.484 0 1.406-1.492 3.199-5.168 3.852-7.891 6.391-10.953 11.719-14.105l2.477-1.465h6.16c6.031 0 6.207.023 8.41 1.141 5.473 2.773 8.254 6.129 10.988 13.277 1.355 3.535 1.871 4.414 3.398 5.781l1.801 1.617 1.625 22.84c1.492 20.93 1.574 22.895 1.004 23.488-.906.941-15.078 5.426-31.934 10.109-9.273 2.574-10.07 2.68-11.57 1.531zm13.449-54.023c9.578-1.855 18.262-3.801 19.199-4.297 1.047-.559.84-.898-1.168-1.93-1.676-.859-2.301-.945-6.531-.91-2.574.023-6.082.254-7.797.516-7.289 1.109-14.988 3.621-15.809 5.156-.676 1.266-.438 2.699.508 3.059 1.082.41 1.664.328 11.598-1.594zm3.508-9.328c6.676-1.078 12.238-1.957 12.359-1.957.445 0-.281-3.57-1.027-5.035-1.059-2.082-4.34-4.941-6.531-5.687-4.086-1.398-8.148-.5-11.563 2.555-3.668 3.281-7.27 8.73-7.27 11.004 0 .879.172 1.078.945 1.078.523 0 6.41-.883 13.086-1.957zm0 0" fill="rgb(30.588235%,40%,62.352941%)"/></g></svg>