<svg xmlns="http://www.w3.org/2000/svg" width="96pt" height="40pt" viewBox="0 0 96 40"><g><path d="M59.336 20.746c.895.211 1.473-1.855 2.008-2.922.68-1.359 1.297-2.066 1.887-2.82.641-.813 1.766-1.766 2.762-2.344 1.176-.68 2.738-1.27 2.395-1.973-1.527-3.148-5.68.684-7.137 2.359-1.344 1.547-5.469 6.875-1.914 7.699zm16.422-3.805c-1.789.051-3.02 1.387-2.883 3.051.152 1.773 1.238 2.547 2.957 2.508 1.574-.039 2.848-1.336 2.672-2.832-.191-1.648-1.195-2.582-2.746-2.727zm11.609 5.137c-.836 4.844-1.258 6.012-4.703 8.473-.457.23-1.293.91-1.793 1.402-.668.66-.73 2.836.051 4.555.504 1.387-.336 2.613-1.289 2.859-1.57.305-3.902.305-4.973.082-1.184-.172-1.512-1.402-.934-3.066.324-1.387-.105-3.254-1.371-3.398-1.164-.133-3.555-.055-4.305-.094-1.656-.086-2.129 2.148-1.594 3.688.441 1.266-.004 2.656-.77 2.75-1.363.344-3.82.281-5.004.051-.766-.148-1.625-1.328-1.117-2.988.422-1.488 1.117-3.258-.59-4.926-2.68-2.613-3.473-3.57-4.402-7.715-.234-1.047-.07-3.008-.262-3.027-.188-.02-.617 4.613-3.324 4.406-3.055-.234-2.875-7.453-1.332-7.32 1.234.105.938 4.434 1.5 4.371.348.063.668-5.398 3.184-4.258.234-.793.402-1.613.727-2.371.301-.699.172-.516.465-1.109 2.688.133 6.84-1.672 6.914-7.375 3.238-1.133 4.777-1.309 8.156-.59 1.047.391 1.898.531 2.367-.574.605-1.426 2.563-5.508 5.465-5.5.77-.184.922 3.195.902 3.957-.039 1.578-.004 3.16-.07 4.738-.043.969-.387 1.668.277 2.398 1.707 2.34 2.535 4.66 2.824 7.566.18 1.797.43 1.801 2.348 1.801 1.613 0 2.914-.313 2.652 1.215zm0 0" fill="rgb(23.921569%,55.686275%,55.686275%)"/><path d="M61.277 9.129c.547-2.875-.848-6.094-3.93-6.832-2.906-.703-5.867.859-6.832 3.598-1.313 3.707 1.477 7.336 5.504 7.453 1.41.043 4.707-1.32 5.258-4.219zm0 0" fill="rgb(92.941176%,75.294118%,40%)"/><path d="M56.223 4.027c-.664 0-1.152.172-1.461.523-.309.348-.465.836-.465 1.477v5.426h.883v-2.738h1.895v-.746h-1.895v-.746h1.895v-.746h-1.895v-.43c0-.383.082-.688.246-.91.164-.23.449-.348.859-.348.203 0 .375.023.516.059l.32.105.16-.766c-.074-.031-.207-.066-.395-.105-.184-.039-.406-.055-.664-.055zm0 0" fill="rgb(24.705882%,24.705882%,24.705882%)"/><path d="M14.594 39.289c-.313-.242-1.777-1.418-3.258-2.613l-2.695-2.172v-.988c.004-1.832.945-21.965 1.043-22.277.109-.344.863-.754 1.383-.754.234 0 .68-.727 1.551-2.52 1.867-3.848 3.098-5.344 5.68-6.879l1.203-.719h2.988c2.922 0 3.008.016 4.078.559 2.652 1.352 4 2.992 5.328 6.477.656 1.727.906 2.152 1.645 2.82l.875.789.785 11.141c.723 10.211.766 11.168.488 11.457-.438.461-7.313 2.648-15.48 4.934-4.496 1.254-4.887 1.309-5.613.746zm6.523-26.352c4.645-.906 8.852-1.855 9.309-2.098.508-.27.406-.438-.566-.941-.813-.418-1.117-.461-3.168-.441-1.246.008-2.949.121-3.781.25-3.531.543-7.266 1.766-7.664 2.516-.328.617-.211 1.316.246 1.492.523.199.809.16 5.625-.777zm1.699-4.551c3.238-.527 5.934-.957 5.992-.957.219 0-.137-1.738-.496-2.453-.516-1.016-2.105-2.41-3.168-2.777-1.98-.68-3.949-.242-5.605 1.246-1.781 1.602-3.527 4.262-3.527 5.367 0 .434.086.527.461.527.25 0 3.105-.43 6.344-.953zm0 0" fill="rgb(30.588235%,40%,62.352941%)"/></g></svg>