<svg xmlns="http://www.w3.org/2000/svg" width="96pt" height="40pt" viewBox="0 0 96 40"><defs><clipPath id="a"><path d="M64.285 17.297c.371.035.605.262.648.656.043.355-.27.668-.648.676-.41.012-.656-.168-.691-.59-.035-.398.262-.73.691-.742zm.629-3.961c-.695-.004-1.156.992-1.301 1.332-.113.266-.316.223-.566.129-.809-.172-1.281-.117-1.867.105-.52.195-.965.605-1.32 1.039-.246.297-.383.656-.523 1.016-.074.184-.137.383-.191.57-.602-.27-.672 1.035-.754 1.02-.137.012-.063-1.012-.355-1.039-.371-.031-.418 1.703.313 1.758.648.051.754-1.063.797-1.059l.063.719c.223.992.41 1.219 1.051 1.844.406.398.246.832.145 1.188-.117.398.09.664.273.699.285.055.871.082 1.195 0 .184-.023.297-.355.191-.656-.129-.367-.02-.91.375-.891.18.008.75-.012 1.031.02.301.035.391.496.313.828-.137.398-.051.68.23.719.258.055.82.055 1.195-.02.227-.059.414-.348.293-.68-.184-.41-.16-.922 0-1.078.121-.117.313-.285.422-.34.824-.59.934-.875 1.133-2.035.063-.363-.242-.297-.629-.297-.461 0-.523.008-.566-.422-.07-.695-.266-1.242-.672-1.801-.16-.176-.074-.34-.063-.574v-1.141c.004-.184-.027-1-.211-.953zm7.336 9.66c0 3.523-.762 6.051-2.285 7.582-1.574 1.57-4.191 2.355-7.852 2.355-1.066 0-2.523-.168-4.363-.5-2.352-.422-3.527-.914-3.527-1.484 0-.234.273-1.445.82-3.633.09-.348.227-.52.418-.52l.211.074c1.957.938 3.766 1.41 5.43 1.41.914 0 1.824-.223 2.727-.668 1.094-.531 1.641-1.199 1.641-2.004v-1.242c-1.297 1.188-2.961 1.781-4.996 1.781-2.387 0-4.352-.836-5.887-2.504-1.488-1.605-2.23-3.582-2.23-5.93 0-2.363.711-4.32 2.133-5.879 1.488-1.617 3.43-2.43 5.832-2.43 1.918 0 3.387.668 4.402 2.004.203.273.344.406.422.406.113 0 .168-.223.168-.664 0-.992.117-1.484.344-1.484.203 0 1.305.105 3.297.316 1.996.195 3.031.309 3.109.332.215.074.324.234.324.48 0 .855-.035 2.129-.098 3.82-.051 1.691-.074 2.965-.074 3.82 0 .504.004 1.266.02 2.277.012 1.016.016 1.773.016 2.281"/></clipPath></defs><g><path d="M7.27 30.676c0-.09-.016.043-.047.391-.043.441-.078 1.008-.102 1.695-.031.777-.047 1.664-.047 2.656 0 1.641.043 2.809.137 3.504l.012.145-.09.074c-.145.02-.672.031-1.586.031-.219 0-.34-.043-.371-.125l-.027-.453-.047-.094-.09.07c-.43.422-.969.633-1.617.633-.844 0-1.516-.297-2.023-.883-.484-.563-.727-1.27-.727-2.121 0-.867.238-1.578.715-2.141.504-.594 1.18-.895 2.035-.895.602 0 1.074.191 1.406.574l.121.094c.035 0 .055-.051.055-.152 0-.309-.008-.766-.023-1.371-.016-.609-.023-1.063-.023-1.367 0-.113.031-.18.094-.195.258-.012.609-.035 1.055-.07.801-.102 1.152-.148 1.059-.148.09 0 .133.047.133.148m-2.258 5.477c0-.316-.109-.59-.328-.824-.219-.238-.484-.355-.797-.355-.328 0-.59.117-.785.355-.191.234-.289.516-.289.848 0 .32.098.594.297.816.199.238.457.355.777.355s.586-.117.801-.355c.219-.238.324-.52.324-.84" fill="#f90"/><path d="M13.645 35.895c0 .402-.133.629-.391.684-.043.008-.457.055-1.238.133-.473.051-1.176.113-2.109.184.055.258.227.457.508.59.234.113.496.168.793.168.355 0 .711-.094 1.07-.285l.457-.285c.082.039.223.242.418.605.199.367.301.598.301.699l-.09.137c-.488.52-1.246.781-2.27.781-.953 0-1.719-.277-2.301-.832-.602-.559-.898-1.309-.898-2.246 0-.91.266-1.66.801-2.246.551-.602 1.281-.906 2.191-.906.77 0 1.418.281 1.953.836.535.555.805 1.219.805 1.984m-2.098-.363c0-.246-.086-.465-.262-.648-.176-.188-.387-.281-.629-.281-.254 0-.461.105-.625.316-.152.195-.227.422-.227.684 0 .109.055.16.168.16.293 0 .754-.043 1.375-.137.133-.02.199-.051.199-.094" fill="#f90"/><path d="M16.496 35.543c0 1.086.004 1.918.012 2.496l.016.473.02.469c0 .086-.051.133-.148.148-.18.031-.504.047-.973.047-.48 0-.785-.016-.914-.047-.09-.02-.141-.074-.152-.16v-.254c0-.355.004-.883.012-1.586.008-.707.012-1.238.012-1.586 0-1.668.004-2.43.008-2.281-.012-.879-.063-1.637-.148-2.27l-.016-.102c0-.09.055-.133.156-.133h2.141c.098 0 .145.043.137.125l-.008.109c-.102 1.715-.152 3.23-.152 4.551" fill="#f90"/><path d="M19.969 31.969c0 .691-.391 1.035-1.176 1.035-.332 0-.609-.086-.832-.262-.238-.191-.359-.449-.359-.773 0-.313.125-.566.371-.766.23-.18.504-.273.82-.273.313 0 .582.094.809.281.246.199.367.449.367.758m-.156 4.426c0 .289.008.723.02 1.301.012.57.016 1 .016 1.285 0 .086-.047.133-.148.148-.137.023-.441.035-.918.035-.477 0-.785-.012-.922-.035-.086-.016-.141-.039-.16-.078l-.012-.176c0-.273.004-.688.016-1.234.012-.551.02-.969.02-1.246 0-1.129-.043-2.027-.133-2.691l-.012-.125c0-.082.055-.121.164-.121.109 0 .281.012.508.035.23.023.406.035.52.035l.523-.027.52-.031c.098 0 .145.039.145.121l-.012.113c-.09.773-.133 1.672-.133 2.691" fill="#f90"/><path d="M27.469 36.215c0 .836-.242 1.531-.719 2.094-.512.594-1.18.895-2 .895-.602 0-1.082-.172-1.449-.516l-.074-.035c-.039 0-.078.074-.113.223-.031.145-.07.227-.121.242-.066.02-.637.031-1.707.031-.25 0-.375-.047-.375-.137l.012-.09c.078-.633.117-1.836.117-3.613 0-1.695-.059-3.172-.18-4.426l-.004-.066c0-.063.063-.098.184-.105l1.043-.09c.43-.039.777-.059 1.043-.059.074 0 .113.066.113.195 0 .156-.008.359-.031.613l-.039.621c-.02.395-.031.93-.031 1.609 0 .121.031.184.098.184l.09-.047c.359-.383.828-.574 1.414-.574.871 0 1.555.297 2.047.891.453.547.684 1.27.684 2.16m-2.168-.063c0-.332-.102-.609-.309-.836-.203-.23-.469-.344-.797-.344-.332 0-.598.113-.793.344-.195.227-.289.508-.289.848 0 .348.094.629.281.844.199.227.473.34.816.34.336 0 .605-.117.809-.352.188-.219.281-.5.281-.844" fill="#f90"/><path d="M33.695 35.895c0 .402-.129.629-.387.684-.043.008-.457.055-1.242.133-.469.051-1.172.113-2.105.184.055.258.223.457.508.59.23.113.496.168.789.168.355 0 .715-.094 1.074-.285l.453-.285c.086.039.227.242.422.605.199.367.297.598.297.699l-.09.137c-.484.52-1.242.781-2.27.781-.949 0-1.715-.277-2.301-.832-.598-.559-.898-1.309-.898-2.246 0-.91.27-1.66.805-2.246.551-.602 1.281-.906 2.191-.906.766 0 1.418.281 1.953.836.535.555.801 1.219.801 1.984m-2.094-.363c0-.246-.09-.465-.266-.648-.176-.188-.383-.281-.629-.281-.25 0-.457.105-.621.316-.152.195-.227.422-.227.684 0 .109.055.16.164.16.297 0 .758-.043 1.379-.137.133-.02.199-.051.199-.094" fill="#f90"/><path d="M38.34 35.418c0 .156-.086.23-.258.23l-.336-.012-.324-.016c-.332 0-.555.051-.676.152-.121.105-.18.313-.18.629l.004.777.016.777.023.516.023.508c0 .098-.066.148-.199.16-.191.016-.484.023-.879.023-.379 0-.684-.012-.91-.035-.133-.016-.199-.082-.199-.195l.008-1.426.004-1.43c0-.934-.086-1.699-.258-2.305l-.012-.09c0-.059.031-.098.09-.117.219-.027.543-.07.965-.133.633-.125.957-.184.977-.184.07 0 .117.125.137.375.02.25.059.375.109.375-.055 0 .105-.105.492-.309.383-.211.75-.316 1.105-.316.227 0 .336.047.336.141 0 .117-.012.281-.035.488l-.043.492.008.457.012.465" fill="#f90"/><path d="M45.059 36.152c0 .305.02.758.055 1.363.035.602.055 1.055.055 1.359 0 .156-.07.242-.211.254-.496.035-1.063.055-1.699.055-.078 0-.129-.113-.156-.34-.023-.23-.055-.348-.09-.352l-.125.102c-.449.449-.93.672-1.438.672-.781 0-1.426-.305-1.938-.918-.48-.57-.723-1.254-.723-2.047 0-.918.25-1.656.746-2.219.52-.578 1.23-.867 2.133-.867.629 0 1.125.215 1.488.652l.039.031c.039 0 .078-.094.121-.285.047-.195.105-.293.168-.293.148 0 .43.043.844.125.395.078.68.148.852.203l.09.094-.02.125c-.125.719-.191 1.48-.191 2.285m-1.93.035c0-.34-.105-.617-.32-.836-.211-.223-.492-.332-.832-.332-.344 0-.621.109-.836.328-.211.219-.316.496-.316.84 0 .32.113.598.336.828.223.23.496.344.816.344.336 0 .613-.109.832-.328.215-.223.32-.504.32-.844" fill="#f90"/><path d="M52.602 30.676c0-.09-.016.043-.051.391-.043.441-.074 1.008-.102 1.695-.031.777-.047 1.664-.047 2.656 0 1.641.047 2.809.137 3.504l.012.145c0 .043-.027.066-.09.074-.141.02-.672.031-1.586.031-.215 0-.34-.043-.371-.125l-.023-.453-.047-.094-.09.07c-.434.422-.973.633-1.617.633-.844 0-1.52-.297-2.027-.883-.48-.563-.723-1.27-.723-2.121 0-.867.238-1.578.711-2.141.504-.594 1.184-.895 2.039-.895.602 0 1.07.191 1.406.574l.121.094c.035 0 .051-.051.051-.152 0-.309-.008-.766-.023-1.371-.016-.609-.023-1.063-.023-1.367 0-.113.031-.18.098-.195.254-.012.605-.035 1.055-.07.797-.102 1.152-.148 1.059-.148.086 0 .133.047.133.148m-2.258 5.477c0-.316-.109-.59-.332-.824-.219-.238-.484-.355-.797-.355-.324 0-.586.117-.781.355-.195.234-.289.516-.289.848 0 .32.098.594.293.816.199.238.461.355.777.355.32 0 .59-.117.805-.355.215-.238.324-.52.324-.84" fill="#f90"/><path d="M58.109 36.852c0 .238.016.59.043 1.063.027.469.043.82.043 1.055 0 .125-.055.191-.164.199-.379.027-.813.043-1.301.043-.059 0-.098-.09-.121-.266-.016-.18-.039-.27-.066-.273l-.098.078c-.344.352-.711.523-1.102.523-.598 0-1.09-.234-1.48-.711-.371-.445-.559-.977-.559-1.594 0-.715.191-1.289.574-1.727.398-.449.941-.676 1.633-.676.48 0 .863.168 1.141.508l.031.023c.027 0 .059-.074.094-.223.035-.148.078-.227.125-.227.113 0 .332.035.648.098.305.063.52.117.652.16l.07.074-.016.094c-.098.563-.148 1.152-.148 1.777m-1.477.027c0-.262-.082-.48-.246-.648-.164-.172-.375-.262-.641-.262-.262 0-.473.086-.637.258-.16.168-.242.387-.242.652 0 .25.086.465.258.645.168.18.379.27.621.27.262 0 .473-.086.641-.258.164-.172.246-.391.246-.656" fill="#f90"/><path d="M66.359 38.996c0 .109-.047.168-.141.18-.09.016-.316.02-.68.02-.371 0-.605-.008-.695-.027-.094-.02-.137-.094-.137-.227l.012-.637.016-.637c0-.543-.008-.926-.02-1.156-.02-.367-.191-.551-.52-.551-.145 0-.285.063-.43.188-.141.117-.219.254-.234.402-.012.129-.02.508-.02 1.141l.016.66.012.664c0 .102-.043.152-.133.152h-1.391c-.086 0-.129-.063-.129-.191l.016-.652.012-.656-.008-.52-.008-.523c0-.441-.168-.664-.5-.664-.137 0-.281.055-.438.156-.172.117-.258.238-.258.363l.004 1.262.008 1.254-.027.145-.145.035c-.137.016-.355.02-.652.02-.191 0-.41-.008-.656-.027l-.133-.031-.016-.141.004-1.105.004-1.113c0-.508-.039-1.078-.109-1.711l-.012-.082.066-.109c.066-.027.191-.051.379-.066l.41-.043.363-.098c.148-.043.27-.066.359-.066.059 0 .09.109.094.328.004.211.016.316.035.316l.105-.063c.277-.219.492-.367.652-.445.234-.113.492-.172.766-.172.281 0 .535.063.754.191.246.141.41.34.48.598.164-.223.387-.41.672-.563.285-.152.563-.227.832-.227.402 0 .73.094.984.281.289.215.434.52.434.914l-.016.742-.012.738.012.879.016.875" fill="#f90"/><path d="M71.434 36.652c0 .313-.098.488-.297.531-.035.008-.352.043-.953.102-.359.043-.898.09-1.613.145.043.203.172.355.391.461.176.086.379.129.605.129.273 0 .547-.074.82-.223l.348-.223c.066.031.172.188.324.473.152.285.227.465.227.543l-.066.105c-.375.406-.953.609-1.742.609-.727 0-1.313-.215-1.762-.645-.457-.438-.688-1.02-.688-1.75 0-.711.207-1.293.617-1.746.422-.469.98-.703 1.68-.703.586 0 1.086.215 1.496.648.406.434.613.945.613 1.543m-1.605-.281c0-.195-.066-.363-.203-.508-.133-.145-.293-.219-.48-.219-.195 0-.352.082-.477.246-.117.152-.176.332-.176.535 0 .082.043.125.129.125.227 0 .578-.035 1.055-.109.102-.012.152-.039.152-.07" fill="#f90"/><path d="M80.23 38.918c0 .121-.074.188-.227.207-.152.016-.547.027-1.188.027-.684 0-1.105-.016-1.266-.043-.164-.023-.246-.117-.246-.27 0-.207.008-.52.023-.941.02-.418.027-.734.027-.945l-.016-.73-.02-.734c0-.605-.32-.906-.965-.906-.211 0-.457.074-.742.227-.301.168-.453.332-.453.496v3.574c0 .145-.086.227-.254.246-.188.016-.574.027-1.16.027-.633 0-1.047-.016-1.234-.043-.168-.02-.254-.094-.254-.219l.008-1.555c.008-.691.008-1.215.008-1.563 0-1.098-.105-1.961-.316-2.59l-.016-.098c0-.07.039-.121.121-.145.344-.031.797-.082 1.367-.148.859-.137 1.344-.203 1.453-.203.059 0 .105.148.141.449.031.297.078.445.137.445-.059 0 .23-.152.871-.457.645-.309 1.207-.465 1.688-.465.688 0 1.266.133 1.723.398.516.305.773.727.773 1.27v2.113l.008 1.289c.008.57.008 1 .008 1.285" fill="#f90"/><path d="M87.02 37.172c0 .133-.023.332-.066.602-.039.27-.059.469-.059.598 0 .121-.016.203-.047.238-.031.035-.121.086-.27.152-.699.313-1.473.469-2.324.469-1.566 0-2.348-.488-2.348-1.465 0-.289.012-.727.039-1.309.027-.59.043-1.027.043-1.32 0-.191-.141-.289-.414-.289h-.105l-.109.008c-.203 0-.309-.063-.309-.18l.02-.324.023-.324-.023-.426-.02-.422c0-.09.176-.137.523-.148.191-.004.301-.047.316-.129.031-.168.043-.434.031-.797l-.031-.813c0-.512.059-.77.176-.77.148 0 .355.027.629.078.309.059.523.094.641.102l1.25.125c.137.008.203.047.203.113 0 .176-.016.441-.055.801-.031.355-.051.625-.051.809 0 .215.082.324.238.324l.859-.02c.387-.016.676-.02.871-.02.117 0 .18.031.18.098 0 .102-.016.254-.043.457-.027.203-.039.355-.039.457l.008.465.008.461c0 .094-.078.141-.234.141l-.547-.008-.543-.012h-.609c-.082 0-.121.098-.121.289v.473l.008.469c0 .371.051.625.152.77.148.188.434.281.863.281.133 0 .328-.023.578-.07.254-.055.43-.082.535-.082.113 0 .172.051.172.148" fill="#f90"/><path d="M95.332 35.516c0 .445-.176.699-.527.762-.063.008-.621.059-1.684.145-.641.059-1.594.125-2.859.207.074.285.305.504.691.656.313.121.672.184 1.07.184.484 0 .969-.105 1.457-.316l.617-.32c.113.047.301.27.566.676.273.406.406.664.406.777l-.121.148c-.66.582-1.688.871-3.078.871-1.293 0-2.332-.309-3.121-.922-.813-.621-1.219-1.453-1.219-2.496 0-1.016.363-1.848 1.086-2.496.75-.672 1.742-1.008 2.977-1.008 1.039 0 1.922.309 2.648.93.727.617 1.09 1.352 1.09 2.203m-2.844-.402c0-.273-.121-.516-.359-.723-.238-.207-.523-.313-.852-.313-.344 0-.625.117-.848.352-.203.215-.309.469-.309.762 0 .117.078.18.23.18.398 0 1.023-.051 1.867-.152.18-.023.27-.059.27-.105" fill="#f90"/><path d="M50.086 10.891c0 .914-.043 2.285-.133 4.117-.09 1.828-.133 3.199-.133 4.113 0 .891.031 2.227.094 4.004.066 1.781.098 3.109.098 3.988 0 .332-.16.543-.477.629-.484.125-1.508.184-3.07.184-1.383 0-2.348-.035-2.895-.109-.242-.039-.395-.184-.457-.445l-.117-1.113c-.063-.566-.152-.852-.266-.852.18 0-.465.422-1.926 1.262-1.461.84-2.789 1.258-3.98 1.258-3.367 0-5.363-1.477-5.984-4.43-.281-1.371-.422-3.359-.422-5.969 0-2.816.234-5.043.707-6.672.141-.508.398-.762.781-.762.582 0 1.473.008 2.668.02s2.082.02 2.668.02c.395 0 .59.16.59.48l-.039.391c-.266 1.68-.398 3.383-.398 5.113 0 2.152.07 3.621.211 4.414.227 1.359 1.059 2.039 2.496 2.039.559 0 1.16-.242 1.809-.723.66-.484 1.004-.984 1.031-1.504.023-.457.035-3.559.035-9.305 0-.406.035-.648.098-.723.074-.125.305-.184.684-.184.625 0 1.559.004 2.805.016 1.258.012 2.195.02 2.82.02.379 0 .602.094.664.277.027.098.039.246.039.445" fill="rgb(23.921569%,55.686275%,55.686275%)"/><path d="M13.535 15.859c0 .297-.168.445-.496.445-1.375 0-2.453-.039-3.242-.113.039.93.078 2.219.117 3.875.012.707.066 1.93.168 3.672.09 1.57.137 2.793.137 3.672 0 .258-.18.406-.535.441-.434.051-1.512.074-3.238.074-1.438 0-2.371-.035-2.805-.109-.43-.074-.648-.328-.648-.762v-10.215c0-.355-.254-.535-.762-.535l-.437.02-.418.016c-.355 0-.539-.098-.555-.297-.113-1.074-.172-2.637-.172-4.688 0-.457.242-.738.727-.836.43-.035.871-.066 1.313-.094-.063-.988-.094-1.758-.094-2.316 0-2.125.426-3.668 1.277-4.633 1.691-1.918 4.422-2.875 8.195-2.875.254 0 .406.074.457.223.102.559.246 1.379.438 2.465.012.102.098.445.25 1.039.113.457.168.809.168 1.059 0 .297-.449.488-1.352.574-1.043.109-1.684.297-1.926.555-.418.445-.629 1.316-.629 2.613 0 .41.031.793.098 1.148.355 0 .906-.012 1.656-.035.75-.023 1.316-.039 1.695-.039.383 0 .574.137.574.41 0 .582.004 1.457.02 2.633.012 1.16.02 2.031.02 2.613" fill="rgb(23.921569%,55.686275%,55.686275%)"/><path d="M28.246 16.266c0 .484-.273.723-.82.723-.242 0-.598-.012-1.066-.035-.457-.039-.801-.055-1.027-.055-1.055 0-1.773.16-2.156.48-.379.32-.57.969-.57 1.945 0 .531.004 1.344.02 2.43.023 1.074.039 1.879.039 2.41 0 .359.023.895.074 1.613.051.703.078 1.23.078 1.574 0 .297-.211.465-.629.5-.613.051-1.547.074-2.805.074-1.207 0-2.172-.035-2.895-.109-.422-.051-.629-.254-.629-.613 0-.988.004-2.465.02-4.43.012-1.977.016-3.461.016-4.449 0-2.902-.27-5.297-.816-7.172l-.039-.281c0-.184.094-.309.285-.371.699-.074 1.723-.207 3.07-.406 2.008-.383 3.043-.574 3.105-.574.227 0 .375.391.438 1.168.063.777.18 1.168.344 1.168-.18 0 .344-.32 1.563-.965 1.219-.656 2.395-.98 3.527-.98.711 0 1.066.148 1.066.441 0 .359-.039.867-.113 1.523-.078.703-.121 1.211-.137 1.52 0 .359.008.832.02 1.426.027.73.039 1.211.039 1.445" fill="rgb(23.921569%,55.686275%,55.686275%)"/><path d="M94.684 18.547c0 .953.059 2.367.172 4.246.113 1.879.172 3.285.172 4.227 0 .492-.223.758-.668.797-1.574.109-3.379.168-5.414.168-.238 0-.406-.352-.496-1.059-.074-.715-.168-1.082-.285-1.094-.102.051-.234.156-.398.316-1.422 1.395-2.949 2.094-4.574 2.094-2.477 0-4.531-.949-6.156-2.855-1.539-1.777-2.305-3.906-2.305-6.375 0-2.855.793-5.156 2.383-6.898 1.648-1.805 3.91-2.707 6.781-2.707 1.996 0 3.57.68 4.727 2.039.051.063.098.094.137.094.113 0 .238-.297.379-.891.152-.605.332-.906.535-.906.469 0 1.363.129 2.688.391 1.258.246 2.16.457 2.703.629.191.074.289.172.289.297l-.059.387c-.406 2.238-.609 4.605-.609 7.102m-6.137.113c0-1.051-.344-1.918-1.031-2.598-.672-.691-1.555-1.039-2.648-1.039-1.094 0-1.977.34-2.648 1.02-.672.68-1.012 1.551-1.012 2.617 0 1 .359 1.859 1.07 2.574.711.719 1.574 1.074 2.59 1.074 1.082 0 1.965-.34 2.648-1.02.688-.691 1.031-1.566 1.031-2.629" fill="rgb(23.921569%,55.686275%,55.686275%)"/><path d="M56.836 5.145c0 .453-.016.719-.051.801-.066.188-.273.508-.613.957-.297.387-.551.688-.762.906-.078.082-.309.125-.699.125-.336 0-.555-.012-.656-.035l-.156-.078c-.18-.172-.434-.473-.762-.898-.352-.457-.563-.77-.633-.941-.074-.184-.109-.457-.109-.82l.004-.465.004-.473c0-.07.051-.105.156-.105l.68.012.688.012c.066 0 .102.043.102.125l-.02.336-.016.34c0 .273.008.5.027.676.008.09.094.258.258.508.168.262.293.395.367.395.074 0 .195-.129.355-.387.16-.242.242-.406.254-.492.023-.188.035-.418.035-.684l-.023-.348-.027-.344c0-.082.031-.125.094-.125l.316.004.32.004.32-.016.324-.016c.074 0 .121.035.145.105.051.148.078.457.078.922" fill="rgb(69.803922%,89.803922%,89.803922%)"/><path d="M59.211 3.125c0 .461-.289.691-.871.691-.25 0-.457-.059-.617-.176-.18-.125-.27-.297-.27-.516 0-.207.094-.375.277-.508.168-.121.371-.184.609-.184.23 0 .43.063.602.188.18.133.27.301.27.504m-.113 2.953l.012.863.012.859c0 .055-.035.09-.109.098-.102.02-.328.027-.68.027-.359 0-.586-.008-.688-.027l-.121-.051-.008-.117.016-.824.012-.828c0-.754-.031-1.352-.098-1.797l-.008-.082c0-.055.039-.082.117-.082l.379.023.387.027.387-.023.391-.02c.07 0 .105.027.105.082l-.008.074c-.066.516-.098 1.113-.098 1.797" fill="rgb(69.803922%,89.803922%,89.803922%)"/><path d="M64.242 5.145c0 .453-.02.719-.051.801-.066.188-.273.508-.613.957-.297.387-.551.688-.762.906-.078.082-.309.125-.699.125-.336 0-.559-.012-.66-.035l-.152-.078c-.18-.172-.434-.473-.762-.898-.355-.457-.566-.77-.633-.941-.074-.184-.109-.457-.109-.82l.004-.465.004-.473c0-.07.051-.105.156-.105l.68.012.684.012c.07 0 .105.043.105.125l-.02.336-.016.34c0 .273.008.5.023.676.012.09.098.258.258.508.172.262.293.395.371.395.074 0 .191-.129.355-.387.156-.242.242-.406.254-.492.023-.188.035-.418.035-.684l-.027-.348-.023-.344c0-.082.027-.125.09-.125l.316.004.32.004.32-.016.328-.016c.074 0 .121.035.145.105.051.148.078.457.078.922" fill="rgb(69.803922%,89.803922%,89.803922%)"/><path d="M68.93 5.742c0 .27-.094.422-.289.457l-.922.09c-.348.031-.871.074-1.566.121.043.172.168.305.379.395.172.074.367.109.59.109.262 0 .527-.063.797-.191l.336-.188c.063.023.168.16.313.402.148.246.223.398.223.465l-.066.094c-.363.348-.926.52-1.688.52-.707 0-1.277-.184-1.707-.551-.445-.375-.668-.875-.668-1.5 0-.609.199-1.109.594-1.496.41-.402.953-.605 1.629-.605.57 0 1.055.187 1.453.559.395.371.594.809.594 1.32m-1.555-.242c0-.164-.066-.309-.199-.434-.129-.121-.285-.184-.465-.184-.188 0-.344.07-.465.207-.113.133-.168.285-.168.457 0 .074.043.109.125.109.219 0 .559-.031 1.023-.094.098-.012.148-.031.148-.063" fill="rgb(69.803922%,89.803922%,89.803922%)"/><path d="M72.379 5.426c0 .102-.063.156-.191.156l-.25-.008-.238-.016c-.246 0-.414.035-.504.105-.09.07-.133.207-.133.418l.004.52.008.516.02.348.02.336c0 .063-.051.098-.148.105-.141.012-.359.02-.652.02-.285 0-.508-.008-.68-.027-.098-.008-.145-.051-.145-.129l.004-.949.004-.953c0-.625-.063-1.137-.191-1.539l-.008-.059.066-.078.715-.09.727-.121c.055 0 .09.082.102.25.016.168.043.25.082.25-.043 0 .078-.07.363-.207.285-.141.559-.211.824-.211.168 0 .25.031.25.094l-.027.328-.031.324.004.309.008.309" fill="rgb(69.803922%,89.803922%,89.803922%)"/><g clip-path="url(#a)"><path d="M54.125 8.582h12.211c.035.082-.02.133-.063.184-.426.477-.832.977-1.25 1.465l-.184.168-.094.066-.027.031-.121.031c-.09-.012-.148-.074-.207-.133-.383-.398-.797-.762-1.184-1.156l-.168-.117c-1.324 1.207-2.594 2.492-3.895 3.742-.051.051-.105.105-.188.082-.188-.121-.34-.285-.496-.438-.477-.457-.953-.906-1.441-1.352-.563-.52-1.117-1.051-1.688-1.563-.133-.121-.238-.277-.426-.367-.582.609-1.145 1.238-1.711 1.863l-.125.125-.039.039-.023.027-.012.012-.07.086-.023.031-.066.07c-.113.113-.227.227-.324.355l-.148.113-.086.047-.414.445c-.176.219-.402.395-.52.656l-.035.027c-.074.016-.117-.035-.156-.086-.055-.109-.047-.23-.063-.348l-.086-.449c-.012-.094-.004-.176.043-.258.059-.172.203-.277.316-.402.434-.469.855-.949 1.285-1.422l1.309-1.461.168-.117zm0 0" fill="rgb(23.921569%,55.686275%,55.686275%)"/><path d="M70.277 8.582h.059l.129.016c.832-.004 1.664.027 2.496.016l.176.027c.051.094.07.207.07.324-.004.578.023 1.156.047 1.73.012.336-.008.672.023 1.004.008.063.023.133-.047.176-.086.035-.137-.02-.188-.07-.16-.156-.293-.336-.43-.504l-.262-.277-.027-.035c-.477-.613-1.027-1.164-1.496-1.758-.094 0-.133.043-.172.078-.309.297-.598.609-.898.914-.203.199-.41.395-.605.602-.035.043-.082.07-.145.063-.16-.098-.277-.246-.41-.379-.563-.566-1.145-1.113-1.73-1.66-.074-.07-.191-.125-.18-.266h3.59zm0 0" fill="rgb(23.921569%,55.686275%,55.686275%)"/><path d="M66.688 8.582c.777.762 1.555 1.52 2.332 2.277.051.063.02.117-.023.16-.16.18-.336.344-.512.512l-.133.051c-.113-.027-.18-.117-.25-.195-.414-.449-.867-.859-1.301-1.289l-.145-.105c-.066.008-.105.066-.145.113-.309.336-.605.688-.898 1.039-.055.063-.105.129-.191.152-.059.012-.109-.004-.148-.047l-.531-.508c-.051-.055-.113-.102-.102-.188l.086-.09.004-.004.078-.09c.512-.598 1.02-1.191 1.527-1.789h.352zm0 0" fill="rgb(25.882353%,12.941176%,4.313725%)"/><path d="M73.156 11.859c.199-.094.059-.254.059-.375.012-.938.008-1.879.008-2.902h0c.047.066.043.141.043.215 0 .789.031 1.574.027 2.363v.379l.016.285v.207l-.039.008c-.059-.047-.152-.07-.113-.18zm0 0" fill="rgb(3.921569%,35.686275%,35.686275%)"/><path d="M73.285 11.168c-.023-.863-.043-1.723-.063-2.586l.082.105c.008.828.004 1.652.004 2.48l-.012.02-.012-.02zm0 0" fill="rgb(59.607843%,83.137255%,86.27451%)"/><path d="M73.281 12.035l.027-.004v.176l-.371-.398.004-.031c.078-.035.117.027.156.074l.184.184zm0 0" fill="rgb(26.27451%,24.313725%,49.411765%)"/><path d="M73.285 11.168h.023v.387l-.012.02-.008-.02-.004-.387zm0 0" fill="rgb(23.921569%,55.686275%,55.686275%)"/><path d="M73.289 11.555h.02v.27l-.02-.27zm0 0" fill="rgb(23.921569%,55.686275%,55.686275%)"/><path d="M73.309 12.445v0zm0 0" fill="rgb(26.27451%,24.313725%,49.411765%)"/><path d="M70.277 8.582h0zm0 0" fill="rgb(3.921569%,35.686275%,35.686275%)"/><path d="M70.102 8.582h0zm0 0" fill="rgb(3.921569%,35.686275%,35.686275%)"/><path d="M73.309 12.742l-.02-.023.02-.004v.027zm0 0" fill="rgb(26.27451%,24.313725%,49.411765%)"/><path d="M61.164 25.367l.055-.008c.234-.078.48-.078.719-.121h.133l.039.012.121-.004.063.004.313.051.043.004c.188.043.363.117.547.176l.039.012c.059.059.133.07.207.09.582.309 1.023.762 1.348 1.332.168.328.316.664.379 1.031 0 .113.074.215.055.352.063-.285.109-.555.219-.809.105-.242.176-.508.387-.691l.07-.078c.047-.199.18-.344.305-.492l.016-.039.027-.035.035-.023.527-.422.16-.07c.168-.066.289-.215.473-.25.133-.023.254-.117.41-.07l-.008-.059c.07-.066.16-.078.246-.082.539-.027 1.078-.047 1.598.141.281.102.523.266.766.438.406.281.699.66.938 1.086.211.383.316.797.387 1.223.039.266.051.531.047.801 0 .133-.051.262-.031.395-.004.129-.059.238-.086.359-.23.816-.711 1.449-1.387 1.941l-.094.055-.047.016c-.129.031-.23.121-.352.172-.309.133-.629.223-.953.289-.246.055-.5.043-.746.016-.609-.066-1.164-.289-1.656-.668-.082-.063-.172-.129-.238-.215l-.051-.105-.027-.027-.098-.117-.035-.02-.031-.031-.02-.031-.125-.129c-.188-.238-.328-.504-.422-.789-.09-.273-.191-.547-.219-.84-.043.273-.113.539-.223.793-.098.156-.152.34-.266.492l-.016.129-.008.043c-.289.449-.637.836-1.086 1.129-.43.285-.898.477-1.402.543-.508.066-1.016.078-1.512-.105-.512-.191-.992-.434-1.367-.844-.465-.504-.809-1.078-.941-1.766l-.031-.254c-.066.297-.199.563-.344.824l-.051.086-.02.035-.023.031-.012.016-.074.109-.023.031-.09.129c-.406.535-.922.922-1.527 1.188-.309.102-.617.199-.934.258-.16.031-.328.027-.488.074l-.152.012-.707-.07-.215-.027c-.352-.133-.711-.242-1.039-.422-.715-.367-1.238-.926-1.59-1.648l-.254-.559c-.23.395-.422.785-.715 1.105l-.129.156-.168.156-.125.02c-.07-.063-.094-.152-.125-.23-.133-.332-.285-.652-.488-.945l-.012-.043c-.016-.086-.02-.176-.109-.227l-.023-.031-.055-.105-.012-.039c-.004-.105-.07-.16-.16-.191l-.039-.098.012-.039.242-.25.02-.035.027-.031.031-.02c.07-.039.121-.094.164-.16l.027-.027.063-.086.031-.023c.117-.113.23-.23.285-.387.047-.102.121-.176.199-.25l.035-.066-.176-.375c-.086-.129-.141-.273-.184-.422-.012-.164-.07-.309-.168-.441-.09-.203-.16-.414-.238-.621-.063-.191-.094-.395-.199-.57l-.023-.035-.055-.129-.016-.035-.066-.137c-.063-.094-.102-.191-.125-.297-.027-.16-.109-.297-.164-.445l-.035-.176-.023-.031-.066-.133c-.035-.094-.09-.18-.027-.281.07-.066.148-.031.219-.008.609.199 1.117.547 1.539 1.027.543.613.891 1.32 1.031 2.133l.031.063.273-.465c.641-.988 1.563-1.508 2.703-1.664l.129-.035c.852-.02 1.672.102 2.418.551.074.078.172.117.262.176.563.41 1.047.895 1.352 1.535.164.34.258.727.297 1.266h.004l-.012-.008c.215-.988.75-1.742 1.637-2.234l.137-.063c.289-.16.602-.242.922-.289zm0 0" fill="rgb(2.352941%,2.745098%,3.137255%)"/><path d="M50.059 30.445l.785-1.203c.316.977.887 1.77 1.813 2.277.098.125.254.168.383.219.18.07.367.141.563.184l.082.012.207.043c.242.043.48.121.73.051h.152c.504.004.98-.129 1.434-.34.578-.285 1.09-.648 1.48-1.176.043-.031.086-.066.086-.129l.012-.02c.074-.004.074-.074.098-.121l.031-.023-.016-.012.008-.012.043-.07.426-.992c.223 1.582 1.07 2.715 2.672 3.047 1.523.316 2.734-.34 3.621-1.613.082.008.109.078.141.137.422.754 1.063 1.23 1.859 1.504.285.098.582.133.883.148.609.039 1.199-.066 1.77-.285.309-.121.59-.305.875-.48l.031-.027.02-.012c.688-.484 1.164-1.125 1.418-1.93.121-.223.145-.469.199-.711.043-.211.063-.418.043-.625-.012-.188-.051-.375-.09-.559-.031-.133-.031-.27-.09-.398-.105-.215-.145-.457-.309-.645-.098-.172-.25-.305-.328-.492l-.051-.133c-.121-.102-.203-.254-.359-.316l-.117-.059c-.141-.133-.293-.254-.453-.367l-.109-.055c-.27-.121-.523-.277-.805-.359-.449-.129-.91-.219-1.379-.109l-.133.008c-.078-.008-.152-.023-.227.02l-.035.02c-.07.023-.152-.008-.215.051l-.035.016c-.148.055-.309.066-.438.168-.313.145-.594.348-.875.543-.086.008-.148.043-.164.137l-.406.465c-.145.199-.297.391-.414.609-.027.051-.051.098-.117.102-.348-.535-.766-1.004-1.344-1.301-.047-.074-.133-.07-.203-.098l.004-.008-.004.008c-.18-.117-.371-.18-.586-.18-.113-.082-.242-.039-.363-.063h-.168c-.023-.113.055-.133.137-.141.145-.016.285-.051.426-.098l8.336-1.734.23-.055.234-.051.137-.02c.047-.02.086-.004.133.039.004.195.055.398.082.602.027.219.047.441.102.656.066.273.055.559.133.832.066.234.082.484.105.723.043.395.164.773.148 1.172l.016.023v.004c.043.098.023.199.035.301l.004.055c.102.16.074.34.102.516l.18 1.254.199 1.402c.082.488.156.977.219 1.469.012.094.066.199-.004.297l-4.738.184c-.195.051-.398.008-.594.031l-.758.02-12.586.324-.094-.004h-.184c-.082.043-.168.023-.246.02-.227-.016-.453.031-.68-.012h-.082l-.09.008-.125-.004h-1.156l-.41-.004-.164.008-.105-.008-.07.004h-.215l-.141.004h-.09l-.027-.004h-.14100000000000001l-.34.02c-.098-.09.031-.172.012-.258.137-.469.168-.949.164-1.43.012-.086.023-.172-.031-.246l-.016-.066-.051-.168-.016-.09c.016-.109.008-.211-.059-.289l.043-.129zm0 0" fill="rgb(23.921569%,55.686275%,55.686275%)"/><path d="M64.664 10.555l.77.699c.09.051.168.121.238.195l1.242 1.223.133.098c.105-.047.184-.129.254-.215l.863-.891c.051-.055.102-.113.184-.113l.672-.691 1.699-1.832 1.648 1.938-.109.016c-.137-.18-.289-.34-.445-.5l-.027-.027-.125-.145c-.031-.066-.07-.129-.141-.16l-.051-.023-.055-.078-.023-.027-.063-.043-.43-.473c-.07-.047-.109.012-.148.051-.656.688-1.34 1.348-2 2.027-.367.375-.746.73-1.102 1.113-.047.051-.102.094-.141.191 1.098 1.109 2.23 2.203 3.359 3.293.113-.023.164-.109.234-.168l.594-.5.852-.73.086.082-1.766 1.715c-.078-.004-.113-.066-.16-.109l-.117-.082-.004-.008c-.02-.059-.051-.098-.113-.113l-.004-.004c-.051-.164-.203-.195-.324-.27l-.16-.137c-.168-.137-.324-.285-.426-.477-.109-.176-.266-.305-.406-.445l-.523-.516c-.188-.184-.371-.375-.574-.547l-.266-.285c-.09-.07-.152-.172-.277-.191-.094-.016-.145-.094-.211-.152-.09-.078-.156-.184-.273-.242-.117.059-.191.168-.285.25l-.828.852-.16.105-.082.008c-.156.172-.375.289-.449.527-.094.141-.23.242-.344.363-.18.195-.383.371-.547.578l-.133.094-.121.027c-.055.098-.129.184-.23.25-.063.039-.094.094-.094.172l-.016.039c-.098.137-.23.242-.344.363-.121.121-.184.121-.316.008-.141-.121-.277-.25-.406-.383-.637-.645-1.309-1.25-1.965-1.875l-.781-.738-.301-.277c-.141-.133-.297-.258-.43-.402-.035-.035-.09-.063-.07-.133 1.09-1.059 2.18-2.117 3.273-3.176l.648-.625 1.547 1.465.07.063zm0 0" fill="rgb(2.352941%,2.745098%,3.137255%)"/><path d="M57.199 20.012c.875.262 1.637.703 2.215 1.434-1.004.938-2.664.379-3.914-1.332-.652.227-1.273.422-1.336 1.328-.059.781-.453 1.453-1.016 2.07-.102-.914.125-1.715.727-2.301.645-.625.285-1.199.125-1.836-.898.32-1.777.305-2.656.023l-.039.012c-.508-.16-.945-.434-1.32-.805-.316-.313-.602-.652-.777-1.07l-.074-.125c-.094-.211-.074-.277.121-.383.121-.066.25-.113.379-.16l.148-.059.117-.008c.188-.07.383-.059.578-.07.578.051 1.121.223 1.633.492.793.422 1.34 1.078 1.773 1.848l.074.129.086.094c.098.008.195-.012.293-.051.246-.098.473-.23.68-.402.063-.055.125-.117.223-.098.078.066.059.16.063.246.012.305.066.598.188.879l.086.137.172-.027c.25-.066.504-.066.758-.082l.113.031c.07.059.074.125.016.195l-.023.047.086-.02.039-.016.09-.031.18-.078c.066-.016.129-.055.195-.012zm0 0" fill="rgb(3.529412%,16.078431%,65.882353%)"/><path d="M67.262 22.52c-.27-.781-.695-1.441-1.41-1.879-1.184 1.48-3.199 1.184-4.25-.102-.813.641-1.254 1.492-1.453 2.598-.039-.699-.324-1.199-.68-1.684.406-.168.719-.441 1.012-.742l.125-.156.504-.871.477.824c1.461-.867 2.879-.793 4.289.102.445-.844.527-1.73.496-2.645l-.051-.469-.004-.055.055-.004.016.043.02.008-.008.012c.75 1.523 1.957 2.309 3.379 2.066.672-.117.867-.898 1.328-1.332.145-.133.258-.305.414-.496.176 1.047.344 2.047.523 3.09-.766-.598-1.602-.891-2.508-1.055-1.34-.242-1.992.316-2.105 1.863l-.031.59-.027.316-.109-.023zm0 0" fill="rgb(3.529412%,16.078431%,65.882353%)"/><path d="M59.953 13.598c1.094 1.031 2.188 2.059 3.289 3.094l.469-.449c.063.078.063.078.047.16l.133-.004c.102.066.18.16.258.25.039.117.145.164.242.215l.105.086c.07.023.117 0 .16-.039.164-.156.371-.262.504-.449.148-.199.352-.328.547-.465.18-.125.32-.289.477-.434.078-.074.16-.129.262-.152-.266.613-.523 1.23-.801 1.84-.371.805-.758 1.602-1.141 2.402l-.102.141c-.723-1.188-1.559-2.246-2.512-3.211l-.141-.098c-.055.031-.094 0-.133-.031-.047-.094-.145-.113-.223-.164-.523-.336-1.078-.594-1.684-.75-.586-.156-1.176-.16-1.773-.105-.539.051-1.063.164-1.578.332-.078.023-.168.074-.242-.02-.027-.059 0-.109.039-.148.348-.336.684-.68 1.039-1.004l.051-.027.043-.016.043-.008c.285-.078.59-.113.848-.285l.363-.156.156-.039.141-.047c.375-.125.754-.246 1.113-.418zm0 0" fill="rgb(59.607843%,83.137255%,86.27451%)"/><path d="M54.129 24.484l-1.066-.273 3.914-1.664.105.039c.32-.113.578-.352.93-.34l.008-.148.66-.25v3.621l-.137.02c-.094-.023-.191-.051-.289-.043l-.047-.012c-.117-.063-.242-.109-.375-.102l-.297-.059-.117-.004c-.266-.141-.57-.133-.852-.219-.754-.453-1.582-.574-2.438-.566zm0 0" fill="rgb(59.607843%,83.137255%,86.27451%)"/><path d="M64.137 16.672l-.258-.254-.105-.09-.027-.129.004-.031c.133-.152.258-.313.434-.418l1.012-1.02c.145-.223.324-.41.547-.555l.977-.957c.082-.039.125.023.176.07.094.09.168.207.285.262.137-.016.188-.191.332-.172l.113.059c.523.488 1.027 1 1.543 1.5l.168.199c.117.297.164.621.309.891l.109-.039c.082-.059.113-.195.254-.164l.16.145.082.102-1.207 1.379-1.086-3.426-1.512 1.387-1.906 1.641-.18-.152c-.047-.105-.156-.145-.223-.227zm0 0" fill="rgb(89.019608%,72.54902%,7.058824%)"/><path d="M50.535 23.617l-.473-.773-.082-.117c-.047-.211-.074-.426-.105-.637-.02-.137.035-.262.035-.398l-.008-.145c.078-.422.242-.809.457-1.176.176-.309.406-.578.668-.816.09-.082.18-.168.32-.156h-.004c.113 1.082.234 2.164.34 3.25.055.559.09 1.125.133 1.688-.449-.02-.785-.273-1.117-.539l-.105-.09h.004l-.063-.09zm0 0" fill="rgb(87.843137%,19.607843%,10.980392%)"/><path d="M60.605 20.555v.148l-.125.008c-.988-.738-2.082-.965-3.281-.699l-.199.047-.156.059-.109.047-.039.012c-.059.031-.113.047-.102-.055l.059-.156c.094-.199.258-.344.402-.504.52-.57 1.184-.902 1.914-1.098.59-.16 1.188-.172 1.785-.023l.141.031c.051.129.023.195-.109.289-.168.621-.34 1.242-.18 1.895zm0 0" fill="rgb(87.843137%,19.607843%,10.980392%)"/><path d="M71.133 16.059l-.359.34-3.262-3.609 3.348-3.402.074.082c.07.152.199.262.289.402.027.043.074.082.027.141-.16-.063-.285-.035-.34.148.016.07-.02.121-.059.172-.172.137-.32.297-.465.461l-.02.035-.023.035-.012.016-.027.027-.051.035c-.098.051-.168.133-.23.219l-.023.031-.066.063-.023.027-.051.051-.031.02-.082.09-.027.031c-.129.109-.285.199-.379.352l-.027.031c-.129.086-.227.211-.332.324-.211.211-.445.406-.625.652-.039.086.039.121.078.172.055.063.121.117.145.203.008.043.012.09.074.094l.031.023.164.141.023.031c.008.082.09.098.133.145l.129.172.125.047c.102.145.203.285.352.387l.039.02.027.027.02.035.098.078.031.02.09.063.082.047.098.094.121.125c.133.172.32.285.469.441.078.113.168.211.301.277.156-.082.234-.242.352-.363.07-.074.102-.199.23-.203l-.207.602c.074.203-.016.348-.176.465l-.051.086zm0 0" fill="rgb(23.921569%,55.686275%,55.686275%)"/><path d="M63.992 23.758c-1 .191-2.688-.434-3.035-1.102-.227-.438-.305-.895.008-1.379l3.027 2.48zm0 0" fill="rgb(87.843137%,19.607843%,10.980392%)"/><path d="M57.406 25.223l.137.012c.105.063.215.086.336.082.117-.008.219.063.332.082l.039.008c.273.086.559.129.844.176l.648.047.113-.031h.289c.051 0 .109 0 .098.082l-.113.074c-.879.496-1.379 1.281-1.684 2.324-.051-1.316-.707-2.188-1.648-2.883.078-.086.313-.098.387-.016l-.008.027-.02.043.012-.027c.082-.063.16-.008.238 0zm0 0" fill="rgb(23.921569%,55.686275%,55.686275%)"/><path d="M60.895 18.398l-.125-.016c-.07-.016-.07-.074-.066-.129.035-.664.172-1.289.621-1.809.051-.059.102-.121.195-.121l.141.098.09.063c.363.652.043 1.281-.105 1.898-.102.426-.324.824-.547 1.359l-.266-.98c-.031-.09.023-.16.059-.23.02-.051.047-.086.004-.133zm0 0" fill="rgb(3.529412%,16.078431%,65.882353%)"/><path d="M59.777 25.578v-.457l3.469-.918.445.398-3.527.91c-.121.082-.246.133-.387.066zm0 0" fill="rgb(87.843137%,19.607843%,10.980392%)"/><path d="M71.566 14.906l-.566.66-.355-.34.016-.035c.07-.012.121.016.172.063l.156.094.09-.078c.176-.254.383-.48.574-.719.09-.113.199-.211.266-.34.137-.172.305-.32.395-.523.109-.234.305-.406.453-.613l.117-.133c.039-.035.027-.121.109-.117.09.035.121.109.137.184-.004.066-.051.09-.09.117-.488.594-.98 1.188-1.473 1.781zm0 0" fill="rgb(2.352941%,2.745098%,3.137255%)"/><path d="M73.047 32.535l-.691-4.852-.004-.086c.254.23.137.551.18.824.223 1.34.402 2.684.594 4.027l-.078.086zm0 0" fill="rgb(59.607843%,83.137255%,86.27451%)"/><path d="M72.313 27.238c-.207-1.305-.414-2.609-.625-3.91l-.094-.137.172-.008.547 4.055zm0 0" fill="rgb(59.607843%,83.137255%,86.27451%)"/><path d="M60.141 23.324c.148.563.07 1.016-.152 1.543-.07-.555-.02-1.012.152-1.543zm0 0" fill="rgb(3.529412%,16.078431%,65.882353%)"/><path d="M73.039 13.125l.055-.121-.117-.176c-.113-.031-.164-.137-.234-.219l-.672-.805-.047-.105.008-.039.758.777.34.383.051.32-.141-.016zm0 0" fill="rgb(59.607843%,83.137255%,86.27451%)"/><path d="M70.84 10.301l.07-.141 1.121 1.5-.012.008c-.16-.055-.227-.207-.328-.32-.262-.309-.516-.621-.785-.922l-.066-.125zm0 0" fill="rgb(59.607843%,83.137255%,86.27451%)"/><path d="M71.813 10.48l.555.484v.008c.121.211.309.363.445.555.059.082.172.133.145.262l-.023.02-1.125-1.328zm0 0" fill="rgb(26.27451%,24.313725%,49.411765%)"/><path d="M60.219 25.695l-.355-.055c.086-.113.215-.078.328-.105l.973-.168-.906.336-.039-.008zm0 0" fill="#693"/><path d="M62.656 25.051c-.145.184-.441 0-.563.238l-.082-.004h-.031l-.762.074 1.438-.309zm0 0" fill="#693"/><path d="M71.133 16.059l.266-.441c-.016.039-.211-.043-.039-.109l.336.004-.563.547zm0 0" fill="rgb(59.607843%,83.137255%,86.27451%)"/><path d="M71.25 10.012l-.316-.543.422.48.055.07.004.004.074.078.023.027.008.02-.008.012-.262-.148zm0 0" fill="rgb(59.607843%,83.137255%,86.27451%)"/><path d="M59.094 25.582c-.293-.012-.586 0-.844-.176l.43.063.414.113zm0 0" fill="#693"/><path d="M66.953 32.77l1.355-.051-1.355.051zm0 0" fill="rgb(59.607843%,83.137255%,86.27451%)"/><path d="M67.262 22.52l.09.016.047-.309v.879l-.137-.586zm0 0" fill="rgb(23.921569%,55.686275%,55.686275%)"/><path d="M53.168 33.098l.926-.008-.926.008zm0 0" fill="#693"/><path d="M70.25 16.07l-.082-.105c.113.086.313.082.301.297l-.219-.191zm0 0" fill="rgb(26.27451%,24.313725%,49.411765%)"/><path d="M70.59 16.387l.273.191-.273-.191zm0 0" fill="rgb(26.27451%,24.313725%,49.411765%)"/><path d="M60.895 18.398l-.063.363-.047-.102.109-.262zm0 0" fill="rgb(26.27451%,24.313725%,49.411765%)"/><path d="M60.191 25.535l-.328.105-.121-.012.035-.051.387-.066.027.023zm0 0" fill="rgb(59.607843%,83.137255%,86.27451%)"/><path d="M72.348 27.543l-.035-.301.035.301zm0 0" fill="rgb(59.607843%,83.137255%,86.27451%)"/><path d="M66.32 17.496l.051.469-.051-.469zm0 0" fill="rgb(23.921569%,55.686275%,55.686275%)"/><path d="M71.512 10.16v-.031c.109.008.156.07.148.18l-.148-.148zm0 0" fill="rgb(26.27451%,24.313725%,49.411765%)"/><path d="M66.371 17.438l-.055.004-.047-.152.051-.02.051.168zm0 0" fill="rgb(23.921569%,55.686275%,55.686275%)"/><path d="M71.457 23.211l-.234.051.234-.051zm0 0" fill="rgb(59.607843%,83.137255%,86.27451%)"/><path d="M70.473 16.266c.117-.039.129.023.113.113l-.113-.113zm0 0" fill="rgb(26.27451%,24.313725%,49.411765%)"/><path d="M71.66 10.309l.125.145-.125-.145zm0 0" fill="rgb(26.27451%,24.313725%,49.411765%)"/><path d="M51.141 33.105l.164-.008-.164.008zm0 0" fill="#693"/><path d="M50.609 33.105l.141-.004-.141.004zm0 0" fill="#693"/><path d="M54.277 33.09l.09.004-.09-.004zm0 0" fill="#693"/><path d="M52.586 33.102h0zm0 0" fill="#693"/><path d="M51.715 33.102h0zm0 0" fill="#693"/><path d="M54.156 33.09h0zm0 0" fill="#693"/><path d="M50.965 33.102l.07-.004-.07.004zm0 0" fill="#693"/><path d="M52.996 33.105l.09-.008-.09.008zm0 0" fill="#693"/><path d="M51.852 33.102h0zm0 0" fill="#693"/><path d="M52.816 33.102h0zm0 0" fill="#693"/><path d="M66.398 17.5l-.012-.02.012.02zm0 0" fill="rgb(23.921569%,55.686275%,55.686275%)"/><path d="M47.684 22.063c-.828-1.727-.383-3.445 1.215-4.645l-.09-.016c-.207-.012-.391.082-.574.152-.227.086-.457.168-.676.27-.387.176-.719.43-1.039.703-.246.211-.469.441-.664.695-.176.234-.34.477-.457.75-.055.137-.113.281-.195.41-.102.152-.102.336-.152.504-.148.48-.148.977-.121 1.473.012.184.105.344.148.523l-.07.012c-1.031-1.383-1.285-2.875-.641-4.5l.16-.363.117-.016.094.023.078.004.055.016.035.012.109.008.234.047c.078-.063.16-.137.207-.223.121-.223.316-.367.508-.523.43-.355.914-.602 1.461-.711.113-.023.223-.035.332.008l.129.02.055.016.016.02.035-.031.078-.016.043.008c.16.059.324.086.492.086.137.039.219.164.352.234-.332-1.035-.355-2.043.246-2.98.297-.457.66-.859 1.156-1.105.098.086.094.176.082.258-.035.301-.039.602-.098.898l.027.063c.273-.289.531-.594.801-.891.035-.066.082-.125.152-.156h.004c.016-.121.125-.172.191-.254.262-.328.547-.633.84-.93l.465-.48.063-.063-.004.004.094-.121-.004.004.105-.078c.09-.063.18-.105.285-.043l.16.027.035.02c.16.137.285.293.297.516-.012.102-.078.168-.145.234-.359.344-.664.734-1 1.098l-.055.109.207.23c.043.051.098.102.074.184l-.289.309-.324.391-.02.086c.102.195.309.289.484.422.418.355.828.715 1.184 1.141l.539.496.098.145c-.035.109-.129.172-.215.238-.418.32-.84.633-1.25.961-.148.113-.195.102-.352-.047-.492-.453-.969-.922-1.449-1.387-.359-.348-.719-.688-1.082-1.031-.039-.035-.07-.082-.152-.094-.191.535-.418 1.059-.773 1.523l.211.027.191-.02.113.008c.043.031.117.051.039.117l-.113.008-.129.055-.555.242.074.27c.16.668.301 1.344.133 2.035l-.047.059c.004.195-.109.363-.148.547-.055.246-.145.48-.277.691l-.344.582c-.148.219-.332.406-.504.605l-.102.105c-.059.059-.121.078-.195.023zm0 0" fill="rgb(87.843137%,19.607843%,10.980392%)"/><path d="M54.586 16.543l-1.84-1.738c-.016-.086-.082-.148-.145-.172-.105-.043-.164-.121-.234-.195-.074-.07-.078-.16-.008-.234.113-.109.172-.266.313-.355l.211-.242.074-.043c.113 0 .176.09.25.156l1 .953.684.656c.051.074.133.109.207.156l.223-.133.098.008.023.023-.012-.016-.035-.109.023-.035.035-.02c.133.012.191-.098.254-.176.059-.074.113-.133.199-.152.262-.313.527-.617.914-.902.066-.145.246-.289.398-.449.113-.117.258-.207.348-.352l.035-.023c.055-.023.098-.063.117-.121 0-.094-.07-.164-.125-.211l-.672-.645c-.152-.121-.301-.242-.418-.402l-.129-.063-.035-.02c-.125-.148-.227-.324-.418-.398l-.031-.027c-.105-.215-.316-.324-.48-.48l-.23-.219c-.035-.051-.102-.059-.16-.066l-.035-.02-.02-.035v.043c-.137.191-.293.363-.477.508l-.082.027c-.09.191-.305.285-.383.484l-.035.027c-.109.031-.191-.008-.234-.113-.047-.102-.129-.16-.219-.215l-.004-.004c-.109-.035-.211-.098-.332-.082l-.055-.035 1.766-1.969c.961.895 1.914 1.781 2.859 2.672.402.375.797.758 1.195 1.141.008.141-.102.199-.188.273l-.672.637-.172.133c-.156.066-.285.168-.355.332l-.086.117-.027.031c-.059.039-.094.117-.18.117l.004.016h.012l-.047.035-1.133 1.09-.059.133c-.371.34-.723.707-1.082 1.051-.184-.02-.367-.188-.395-.348zm0 0" fill="rgb(2.352941%,2.745098%,3.137255%)"/><path d="M53.145 11.082l.387.117c-.191-.039-.379-.051-.559.059l.031-.031.035-.023.105-.121zm0 0" fill="rgb(25.882353%,12.941176%,4.313725%)"/><path d="M64.664 10.555l-.07-.063.133-.027-.063.09zm0 0" fill="#693"/><path d="M52.977 11.254l-.094.121.094-.121zm0 0" fill="rgb(25.882353%,12.941176%,4.313725%)"/><path d="M64.809 10.371l-.078.09-.004-.074.082-.016zm0 0" fill="#693"/><path d="M52.887 11.371l-.063.063.063-.063zm0 0" fill="rgb(25.882353%,12.941176%,4.313725%)"/><path d="M53.039 11.203l-.035.023.035-.023zm0 0" fill="rgb(87.843137%,19.607843%,10.980392%)"/><path d="M72.957 11.789l-.59-.816.789.887.125.176-.324-.246zm0 0" fill="rgb(2.352941%,2.745098%,3.137255%)"/><path d="M68.348 11.551l-1.348 1.32c-.516-.527-1.043-1.074-1.566-1.617l1.293-1.48 1.621 1.777zm0 0" fill="rgb(23.921569%,55.686275%,55.686275%)"/><path d="M54.242 25.336l.18-.223 2.891 2.723-2.613 3.145c-1.156-1.09-2.145-2.023-3.188-3l1.227-1.18c.086.012.137.074.191.129.344.344.699.676 1.059 1.008l.137.074c.426-.48.859-.973 1.305-1.469-.105-.172-.254-.289-.391-.414-.246-.227-.48-.461-.734-.684l-.063-.109zm0 0" fill="rgb(25.882353%,12.941176%,4.313725%)"/><path d="M59.5 28.84l-.219-.234 2.16-2.52c.973.934 1.961 1.82 2.863 2.785.223.234-.25.48-.422.695-.52.652-1.066 1.281-1.629 1.945l-.195-.266c-.027-.082.031-.129.074-.18.191-.23.391-.457.57-.695l.102-.16c-.125-.16-.266-.313-.445-.422-.129.051-.227.133-.332.203-.227.16-.469.281-.734.359-.078.023-.152.043-.227-.012l-.207-.199c-.035-.066.02-.098.051-.137l.117-.141.023-.035.055-.063c.176-.223.379-.422.559-.668l-1.281-1.223c-.148.117-.258.242-.359.371l-.445.535-.078.059zm0 0" fill="rgb(25.882353%,12.941176%,4.313725%)"/><path d="M67.156 30.027l-1.035-.93-.32-.309 1.953-2.387c.113-.027.145.063.188.129l.777 1.273.156.25c.066.102.059.195-.027.277l-.512.551c-.348.328-.648.703-1 1.023-.051.051-.098.109-.18.121zm0 0" fill="rgb(23.921569%,55.686275%,55.686275%)"/><path d="M71.129 26.184l.293.469c.16.207.242.457.32.699.137.426.199.871.164 1.316-.012.176-.027.352-.086.52l-.063.059c.086-1.031-.059-2.02-.715-2.852-.828-1.055-1.938-1.355-3.215-1.117l-.422.145c-.34.148-.664.316-.934.578l-.195.172h-.004l-.027.031c-.195.16-.262.414-.418.59-.168.191-.25.414-.352.633-.102.219-.156.457-.191.695-.16.016-.105-.109-.145-.168l-.383-1.023c.305-.395.609-.789.91-1.188.027-.082.105-.117.172-.16l.879-.535.469-.176v-.004l.238-.059.242-.055c.848-.145 1.633.043 2.367.477l.098.055.547.422c.164.141.34.277.449.477zm0 0" fill="rgb(87.843137%,19.607843%,10.980392%)"/><path d="M54.242 25.336l1.285 1.172-1.535 1.73-1.254-1.438 1.504-1.465zm0 0" fill="rgb(23.921569%,55.686275%,55.686275%)"/><path d="M70.195 31.59c-1.27 1.41-4.547.934-5.371-.773l-.156-.25.008-.02c.012-.18.156-.305.211-.465l.07-.156.266-1.012c.082.695.297 1.301.672 1.84l.109.148.004.008.027.023.004.004c.063.043.121.09.141.172l.008.008.051.055c1.219 1.094 2.551 1.117 3.957.418zm0 0" fill="rgb(87.843137%,19.607843%,10.980392%)"/><path d="M68.258 31.16l-.805-.766-.023-.031-.004-.004-.023-.027-.004-.004-.027-.027v-.004c-.063-.078.008-.125.051-.172.285-.336.617-.625.922-.938l.582-.609c.113-.121.195-.117.281.023.184.305.391.594.555.91l.039.168c-.078.105-.172.211-.293.289l-.004.004-.023.016-.012.012c-.094.148-.223.262-.344.383-.246.246-.477.516-.734.75-.035.031-.074.098-.133.027zm0 0" fill="rgb(87.843137%,19.607843%,10.980392%)"/><path d="M69.508 29.969l.27-.332-.703-1.152c-.582.621-1.141 1.219-1.703 1.813l-.215-.27c.621-.566 1.242-1.133 1.859-1.691l-1.262-1.934c.152-.133.137-.406.379-.465l.012.016c-.027.199.105.332.188.48.234.426.516.816.762 1.23l.125.117c.184-.168.387-.32.469-.586l.027-.031.324.34c.008.074-.047.117-.09.164l-.383.387c-.043.047-.09.09-.109.176.051.133.129.27.215.402l.336.539c.035.055.086.113.039.188-.164.219-.246.508-.539.609zm0 0" fill="rgb(25.882353%,12.941176%,4.313725%)"/><path d="M59.5 28.84l.84-1.074 1.41 1.332-.617.707-.059.059v.004l-.141.125c-.039.074-.098.094-.172.07l-.012-.012-.09-.094-1.16-1.117zm0 0" fill="rgb(23.921569%,55.686275%,55.686275%)"/><path d="M70.047 29.359l-.715-1.195.707-.66.863.969-.855.887zm0 0" fill="rgb(23.921569%,55.686275%,55.686275%)"/><path d="M61.066 30.34c.504-.066.895-.367 1.297-.652l.551.52c-.289.348-.574.691-.855 1.039l-.992-.906zm0 0" fill="rgb(23.921569%,55.686275%,55.686275%)"/><path d="M71.758 29.246c.23-.859.102-1.672-.289-2.457l-.047-.137c.297.297.371.691.445 1.074.133.648.172 1.297-.203 1.895l.094-.375zm0 0" fill="#693"/><path d="M65.141 27.953l.102.16c.168-.738.441-1.402 1.004-1.91-.465.695-.945 1.383-1.008 2.52l-.098-.77zm0 0" fill="rgb(25.882353%,12.941176%,4.313725%)"/><path d="M66.277 26.172c.402-.5.93-.777 1.551-.895l-.344.137-.363.203-.844.555zm0 0" fill="rgb(25.882353%,12.941176%,4.313725%)"/><path d="M68.258 31.16l1.211-1.16c-.379.406-.762.809-1.145 1.211l-.066-.051zm0 0" fill="rgb(25.882353%,12.941176%,4.313725%)"/><path d="M56.207 31.688c-.445.254-.914.414-1.434.34l1.434-.34zm0 0" fill="#693"/><path d="M68.133 25.938l.098-.227c.305.277.652.445.832.801l-.016.008c-.074.012-.117-.043-.164-.082l-.465-.438-.125-.082-.152.027zm0 0" fill="rgb(25.882353%,12.941176%,4.313725%)"/><path d="M53.684 31.934l-.688-.145-.34-.27 1.027.414zm0 0" fill="#693"/><path d="M57.125 25.254l.039-.105-.367.047-.23-.148.84.176-.281.031zm0 0" fill="#693"/><path d="M54.621 32.027c-.254.148-.492.023-.73-.051l.73.051zm0 0" fill="#693"/><path d="M69.09 26.543c.211.102.383.246.477.469l-.02.012-.125-.059c-.113-.129-.27-.215-.34-.383l.008-.039zm0 0" fill="rgb(25.882353%,12.941176%,4.313725%)"/><path d="M64.957 29.926l-.281.621.281-.621zm0 0" fill="rgb(25.882353%,12.941176%,4.313725%)"/><path d="M62.625 25.352c.223-.039.422.008.586.18l-.586-.18zm0 0" fill="#693"/><path d="M60.762 30.063l.313-.195-.215.273-.098-.078zm0 0" fill="#693"/><path d="M62.262 25.289l.363.063-.363-.063zm0 0" fill="#693"/><path d="M66.18 31.109l-.141-.172c.109.004.148.07.141.172zm0 0" fill="rgb(25.882353%,12.941176%,4.313725%)"/><path d="M69.566 27.012l.148.152-.012.008c-.102 0-.148-.047-.148-.148zm0 0" fill="rgb(25.882353%,12.941176%,4.313725%)"/><path d="M63.211 25.531l.203.098-.203-.098zm0 0" fill="#693"/><path d="M57.883 30.242l-.098.121.098-.121zm0 0" fill="#693"/><path d="M57.773 30.383l-.086.129.086-.129zm0 0" fill="#693"/><path d="M66.004 30.902l-.109-.148.109.148zm0 0" fill="rgb(25.882353%,12.941176%,4.313725%)"/><path d="M60.66 29.957l.09.094-.09-.094zm0 0" fill="#693"/><path d="M60.219 25.695l.039.008-.129.051.09-.059zm0 0" fill="rgb(23.921569%,55.686275%,55.686275%)"/><path d="M57.949 30.125l-.043.07.043-.07zm0 0" fill="#693"/><path d="M66.238 31.172l-.051-.055.051-.035v.09zm0 0" fill="rgb(25.882353%,12.941176%,4.313725%)"/><path d="M62.094 25.289h0zm0 0" fill="#693"/><path d="M61.98 25.285l-.031-.043.02-.016.043.059h-.031zm0 0" fill="rgb(23.921569%,55.686275%,55.686275%)"/><path d="M70.246 31.551l-.02.012.02-.012zm0 0" fill="rgb(87.843137%,19.607843%,10.980392%)"/><path d="M66.246 26.203l.027-.031-.027.031zm0 0" fill="rgb(25.882353%,12.941176%,4.313725%)"/><path d="M66.035 30.934l-.027-.023.027.023zm0 0" fill="rgb(25.882353%,12.941176%,4.313725%)"/><path d="M67.43 30.363l.023.031-.023-.031zm0 0" fill="rgb(25.882353%,12.941176%,4.313725%)"/><path d="M69.48 29.988l.023-.016-.023.016zm0 0" fill="rgb(25.882353%,12.941176%,4.313725%)"/><path d="M67.402 30.332l.023.027-.023-.027zm0 0" fill="rgb(25.882353%,12.941176%,4.313725%)"/><path d="M67.375 30.301l.023.027-.023-.027zm0 0" fill="rgb(25.882353%,12.941176%,4.313725%)"/><path d="M57.898 30.207l-.016.035.016-.035zm0 0" fill="#693"/><path d="M69.063 26.512l.027.031-.008.004-.023-.027zm0 0" fill="rgb(25.882353%,12.941176%,4.313725%)"/><path d="M71.129 26.184l-.449-.477c.215.094.383.238.449.477zm0 0" fill="#693"/><path d="M67.188 24.871l-.469.176.469-.176zm0 0" fill="#693"/><path d="M65.84 25.582l-.172.16c-.012-.125.063-.16.172-.16zm0 0" fill="#693"/><path d="M67.668 24.754l-.242.055.242-.055zm0 0" fill="#693"/><path d="M67.426 24.809l-.238.059.238-.059zm0 0" fill="#693"/><path d="M70.133 25.285l-.098-.055.098.055zm0 0" fill="#693"/><path d="M62.953 10.195l.102-.098c.059-.027.09.016.125.047l.563.531.594.574 1.352 1.285c.102.09.102.18 0 .262l-.004.004-.051.063-.008.008-.016.02-.008.012-.074.086-.008.012-.031.039-.016.023c-.02.055-.047.102-.109.117l-.059.043c-.109.012-.164-.074-.234-.129-.445-.344-.863-.715-1.313-1.055-.055-.039-.105-.09-.199-.098-.406.469-.809.953-1.184 1.445.023.098.086.137.137.18.457.371.902.758 1.367 1.125.059.047.137.09.063.188l-.172.211-.133.148-.02.027c-.02.098-.086.156-.168.199-.223.09-.273-.168-.426-.215-.211-.102-.367-.27-.531-.434l-.063-.059c-.109 0-.152-.102-.227-.152-.129-.086-.25-.184-.359-.297l-.008-.027c-.113-.055-.227-.113-.285-.234l-1.125-.918c.703-.828 1.398-1.645 2.094-2.461.051-.066.094-.137.172-.176l.004-.004c.074-.109.152-.215.258-.293zm0 0" fill="rgb(89.019608%,72.54902%,7.058824%)"/><path d="M63.945 14.879l-1.359-1.188-.316-.27 1.305-1.605 1.73 1.406-1.359 1.656zm0 0" fill="rgb(25.882353%,12.941176%,4.313725%)"/><path d="M58.738 13.168l.387.355.555-.18.273.254c-.324.281-.75.309-1.125.465l-.105.047-.539.184c-.238.113-.496.176-.75.238l-.02-.094.055-.039.109-.133c.094-.129.203-.246.352-.32l.809-.777zm0 0" fill="rgb(89.019608%,72.54902%,7.058824%)"/><path d="M65.688 12.797l.078-.137-2.711-2.563c.402.07.574.441.84.68.637.574 1.242 1.184 1.871 1.789-.02.066.094.191-.078.23zm0 0" fill="rgb(25.882353%,12.941176%,4.313725%)"/><path d="M67.527 13.406l-.012-.043c.406.16.625.543.926.82.398.371.754.789 1.133 1.184l-.082.008c-.09-.055-.152-.133-.188-.238l-1.777-1.73zm0 0" fill="rgb(25.882353%,12.941176%,4.313725%)"/><path d="M69.527 15.359l.047.008.434.457-.223.191-.051-.02c-.117-.176-.195-.371-.246-.574l.039-.063zm0 0" fill="rgb(87.843137%,19.607843%,10.980392%)"/><path d="M65.742 14.176l-.547.555c.109-.258.277-.461.547-.555zm0 0" fill="rgb(25.882353%,12.941176%,4.313725%)"/><path d="M61.848 14.309l.582.449-.027.078-.555-.527zm0 0" fill="rgb(25.882353%,12.941176%,4.313725%)"/><path d="M64.184 15.75l-.41.441-.055.027.332-.461.133-.008zm0 0" fill="rgb(25.882353%,12.941176%,4.313725%)"/><path d="M62.492 14.816l.531.434c-.25-.051-.387-.246-.531-.434zm0 0" fill="rgb(25.882353%,12.941176%,4.313725%)"/><path d="M63.719 16.219l.055-.027.105.227h-.113l-.055-.176.008-.023zm0 0" fill="rgb(92.54902%,87.058824%,89.019608%)"/><path d="M61.551 14.047l.285.234c-.129-.031-.266-.063-.285-.234zm0 0" fill="rgb(25.882353%,12.941176%,4.313725%)"/><path d="M62.953 10.195l-.258.293.258-.293zm0 0" fill="rgb(25.882353%,12.941176%,4.313725%)"/><path d="M63.449 15.465l.168-.199c.023.137-.035.199-.168.199zm0 0" fill="rgb(25.882353%,12.941176%,4.313725%)"/><path d="M62.691 10.492l-.172.176.172-.176zm0 0" fill="rgb(25.882353%,12.941176%,4.313725%)"/><path d="M63.637 15.238l.133-.148-.133.148zm0 0" fill="rgb(25.882353%,12.941176%,4.313725%)"/><path d="M65.363 13.18l.109-.117-.109.117zm0 0" fill="rgb(25.882353%,12.941176%,4.313725%)"/><path d="M65.527 12.988l.074-.086-.074.086zm0 0" fill="rgb(25.882353%,12.941176%,4.313725%)"/><path d="M71.488 10.102l-.074-.078.074.078zm0 0" fill="rgb(26.27451%,24.313725%,49.411765%)"/><path d="M65.633 12.863l.051-.063.012.047-.063.016zm0 0" fill="rgb(25.882353%,12.941176%,4.313725%)"/><path d="M71.41 10.02l-.055-.07.055.07zm0 0" fill="rgb(26.27451%,24.313725%,49.411765%)"/><path d="M65.488 13.039l.031-.039-.031.039zm0 0" fill="rgb(25.882353%,12.941176%,4.313725%)"/><path d="M65.609 12.891l.02-.02-.02.02zm0 0" fill="rgb(25.882353%,12.941176%,4.313725%)"/><path d="M56.594 20.121l.102.055-.344.145.242-.199zm0 0" fill="rgb(26.27451%,24.313725%,49.411765%)"/><path d="M56.836 20.102l.164-.043-.16.066-.027-.004.023-.02zm0 0" fill="rgb(26.27451%,24.313725%,49.411765%)"/><path d="M56.836 20.102l.004.023-.105.039.102-.063zm0 0" fill="rgb(26.27451%,24.313725%,49.411765%)"/><path d="M57.414 14.438l.016.078.754-.223c-.27.191-.578.25-.898.273l.129-.129zm0 0" fill="rgb(92.54902%,87.058824%,89.019608%)"/><path d="M64.137 16.672l.223.227-.223-.227zm0 0" fill="rgb(92.54902%,87.058824%,89.019608%)"/><path d="M58.723 14.109l.105-.047-.105.047zm0 0" fill="rgb(92.54902%,87.058824%,89.019608%)"/><path d="M57.254 14.617l.047-.035-.047.035zm0 0" fill="rgb(92.54902%,87.058824%,89.019608%)"/><path d="M50.594 23.707l.105.09-.105-.09zm0 0" fill="rgb(59.607843%,83.137255%,86.27451%)"/><path d="M58.211 25.398l-.668-.164.668.164zm0 0" fill="#693"/><path d="M69.527 15.359l.258.656-.16.172-.32-1.051.223.223zm0 0" fill="rgb(92.54902%,87.058824%,89.019608%)"/><path d="M68.535 13.207c0-.18-.324-.188-.219-.422l.102.047.043.047c.047.109.125.184.227.238l.035.016.055.051.023.027.023.047.02.023.059.039.027.031c.016.078.078.113.145.145l.027.035-.023.105c-.129.027-.184-.063-.234-.156v.004c-.07-.039-.133-.086-.164-.164h-.004c-.074-.008-.109-.055-.141-.113zm0 0" fill="rgb(2.352941%,2.745098%,3.137255%)"/><path d="M68.406 12.844l-.09-.059.629-.633.078.008-.043.055c-.004.074-.055.129-.098.176-.152.156-.285.336-.477.453zm0 0" fill="rgb(25.882353%,12.941176%,4.313725%)"/><path d="M70.867 10.422l-.527.395.5-.516.09.094-.063.027zm0 0" fill="rgb(2.352941%,2.745098%,3.137255%)"/><path d="M70.645 15.227l-.457-.457.012-.02c.055-.031.113-.023.141.031.047.105.148.133.238.18.117.059.141.113.09.242l-.023.023zm0 0" fill="rgb(2.352941%,2.745098%,3.137255%)"/><path d="M68.844 13.48l.219.16.02.004c.074.059.156.109.176.211l-.012.02-.133.008-.27-.402zm0 0" fill="rgb(59.607843%,83.137255%,86.27451%)"/><path d="M69.652 14.277c-.223-.047-.328-.211-.406-.402l.004-.004c.117-.023.145.109.23.141l.031.027.09.098.027.027.023.113zm0 0" fill="rgb(59.607843%,83.137255%,86.27451%)"/><path d="M69.652 14.277l-.055-.102.008-.012c.137-.035.422.242.398.379l-.02.012-.07-.031c-.055-.008-.086-.043-.102-.09h.004c-.059-.031-.133-.043-.141-.129h-.012v.012l-.031-.031.012.004zm0 0" fill="rgb(2.352941%,2.745098%,3.137255%)"/><path d="M69.723 11.441l-.414.387.414-.387zm0 0" fill="rgb(2.352941%,2.745098%,3.137255%)"/><path d="M69.023 12.16l-.078-.008.367-.328-.289.336zm0 0" fill="rgb(2.352941%,2.745098%,3.137255%)"/><path d="M70.266 10.902l-.277.27.277-.27zm0 0" fill="rgb(2.352941%,2.745098%,3.137255%)"/><path d="M69.676 14.305l.141.129h-.141v-.129zm0 0" fill="rgb(59.607843%,83.137255%,86.27451%)"/><path d="M68.535 13.207l.141.113-.113.012-.027-.125zm0 0" fill="rgb(59.607843%,83.137255%,86.27451%)"/><path d="M68.68 13.32l.164.16-.164-.16zm0 0" fill="rgb(59.607843%,83.137255%,86.27451%)"/><path d="M70.188 14.77l-.121-.117.02-.02c.105-.02.141.027.105.129zm0 0" fill="rgb(2.352941%,2.745098%,3.137255%)"/><path d="M69.84 11.32l-.117.117.117-.117zm0 0" fill="rgb(2.352941%,2.745098%,3.137255%)"/><path d="M69.988 11.172l-.09.09.09-.09zm0 0" fill="rgb(2.352941%,2.745098%,3.137255%)"/><path d="M70.066 14.652l-.082-.098h.004c.078-.027.105.004.09.086zm0 0" fill="rgb(2.352941%,2.745098%,3.137255%)"/><path d="M69.813 14.434l.102.09-.086-.008-.016-.082zm0 0" fill="rgb(59.607843%,83.137255%,86.27451%)"/><path d="M69.898 11.262l-.059.059.059-.059zm0 0" fill="rgb(2.352941%,2.745098%,3.137255%)"/><path d="M70.313 10.84l-.035.047.035-.047zm0 0" fill="rgb(2.352941%,2.745098%,3.137255%)"/><path d="M70.34 10.813l-.031.031.031-.031zm0 0" fill="rgb(2.352941%,2.745098%,3.137255%)"/><path d="M69.633 14.285l.031-.008v.039l-.031-.031zm0 0" fill="rgb(59.607843%,83.137255%,86.27451%)"/><path d="M57.121 25.262l.004-.008zm0 0" fill="#693"/><path d="M70.078 14.641l-.09-.086c-.078-.184-.203-.316-.391-.379l.004-.004-.121-.113.004-.004c-.145-.137-.262-.293-.418-.414h-.004l.027-.129c.082.004.141-.039.195-.105l.598-.711c.055-.059.105-.121.191-.121.094.027.125.109.164.184l.672 1.285.191.352c.066.125.063.238-.031.352-.094.113-.188.227-.262.344.02.086.07.121.145.156.098-.094.195-.195.281-.309.164-.203.328-.406.5-.602.039-.051.074-.105.141-.125l.043.008-.902 1.207-.348-.223c-.043-.273-.316-.293-.477-.441l-.113-.121zm0 0" fill="rgb(25.882353%,12.941176%,4.313725%)"/><path d="M70.867 10.422l.063-.027 1.09 1.273.957 1.16-.047.152-1.852-2.297-.211-.262zm0 0" fill="rgb(26.27451%,24.313725%,49.411765%)"/><path d="M72.246 13.777l.094-.082-.422.523-.016-.016c.051-.191.145-.355.344-.426zm0 0" fill="rgb(25.882353%,12.941176%,4.313725%)"/><path d="M54.973 10.457l.039.008c.148.02.211.152.309.238.203.176.43.332.586.559l.008.008c.098.023.148.102.215.168.078.078.164.148.223.242l.004.004c.164.039.234.199.352.301.207.176.418.359.609.559l.438.438c-.02.098-.078.152-.168.18l-.023.016c-.164.254-.41.426-.617.637-.336.344-.68.68-1.027 1.012-.152.141-.258.34-.469.41l-.035.016-.277.129c-.094.059-.191.031-.277-.02l-.676-.648c-.008-.094.07-.129.133-.156.508-.219 1.023-.418 1.52-.656.359-.168.727-.313 1.102-.438.063-.023.117-.066.16-.145-.102-.141-.219-.277-.34-.406-.156-.172-.297-.355-.438-.539-.164-.223-.34-.441-.535-.641l-.191-.273-.285-.359c-.09-.004-.137.043-.188.082-.414.332-.852.629-1.238.996-.133.129-.285.242-.453.332-.074.039-.133.098-.172.176l-.023.035-.027.031c-.148.086-.23.27-.414.313l-.012.008.008.055c-.059.031-.117.102-.191.02.41-.48.82-.957 1.234-1.434-.004-.121.078-.172.176-.211l.004-.008c.133-.195.301-.363.473-.523l.477-.508zm0 0" fill="rgb(89.019608%,72.54902%,7.058824%)"/><path d="M52.922 13.539l.047.035c-.09.352-.855.398-.438.977.066.09.238.086.215.254l-.711-.598.887-.668zm0 0" fill="rgb(25.882353%,12.941176%,4.313725%)"/><path d="M54.008 11.5l-.176.211-.297-.508c.238-.031.207.371.473.297zm0 0" fill="rgb(25.882353%,12.941176%,4.313725%)"/><path d="M55.449 15.234c.703-.684 1.41-1.371 2.113-2.059l-.793.945-.082-.012-.938.844.07-.008c-.117.117-.156.316-.371.289zm0 0" fill="rgb(25.882353%,12.941176%,4.313725%)"/><path d="M57.586 13.16l.148-.16-1.379-1.316.305.027 1.043 1.18c.035.043.07.133.047.168l-.164.102zm0 0" fill="rgb(25.882353%,12.941176%,4.313725%)"/><path d="M55.906 11.262l-.895-.797c.371.184.688.426.895.797zm0 0" fill="rgb(25.882353%,12.941176%,4.313725%)"/><path d="M54.859 15.359l.555-.109.004.008c-.012.059-.035.105-.098.113l-.191.219-.27-.23zm0 0" fill="rgb(59.607843%,83.137255%,86.27451%)"/><path d="M54.484 10.969l-.473.527c.102-.227.246-.418.473-.527zm0 0" fill="rgb(25.882353%,12.941176%,4.313725%)"/><path d="M56.352 11.68l-.438-.41c.242.031.332.23.438.41zm0 0" fill="rgb(25.882353%,12.941176%,4.313725%)"/><path d="M57.93 13.945l-.336.344-.055.008.098-.199.293-.152zm0 0" fill="rgb(25.882353%,12.941176%,4.313725%)"/><path d="M55.32 15.371l.098-.113.031.129-.129-.016zm0 0" fill="rgb(25.882353%,12.941176%,4.313725%)"/><path d="M57.539 14.297l.055-.008-.125.109.07-.102zm0 0" fill="rgb(92.54902%,87.058824%,89.019608%)"/><path d="M54.973 10.457l-.004.004h-.008l.012-.004zm0 0" fill="rgb(25.882353%,12.941176%,4.313725%)"/><path d="M55.453 15.391l-.004-.004zm0 0" fill="rgb(25.882353%,12.941176%,4.313725%)"/><path d="M62.129 28.434l-1.301-1.223.59-.707 1.414 1.344-.52.59c-.063.051-.125.035-.184-.004zm0 0" fill="rgb(23.921569%,55.686275%,55.686275%)"/><path d="M63.246 28.258l.727.68-.586.707-.527-.48c.211-.273.324-.582.387-.906zm0 0" fill="rgb(23.921569%,55.686275%,55.686275%)"/><path d="M62.129 28.434l.184.004-.086.105-.098-.109zm0 0" fill="#693"/><path d="M61.074 29.863l.059-.059-.059.059zm0 0" fill="#693"/><path d="M69.059 26.52l.023.027.473.477.148.148c.039.363-.332.441-.488.773l-1.145-1.828.07-.172.125-.133.793.707zm0 0" fill="rgb(87.843137%,19.607843%,10.980392%)"/><path d="M56.668 16.461c.168.781-.605 2.016-1.398 2.25-.211-.996.547-2.223 1.398-2.25zm0 0" fill="rgb(3.529412%,16.078431%,65.882353%)"/><path d="M72.246 13.777l-.344.426-.949 1.148-.238-.234.426-.543-1.066-2.004-.879 1.02-.105-.078-.012-.012c-.098-.012-.145-.074-.168-.164l-.012-.012-.059-.055-.023-.023-.02.004-.008-.035-.008-.008-.051-.051-.012-.004c-.121-.059-.207-.156-.273-.27l-.039-.039.574-.629 1.719-1.293 1.547 2.855zm0 0" fill="rgb(89.019608%,72.54902%,7.058824%)"/><path d="M68.445 12.883l.273.27c-.152-.023-.246-.109-.273-.27zm0 0" fill="rgb(25.882353%,12.941176%,4.313725%)"/><path d="M68.91 13.336l.168.164c-.129.02-.18-.039-.168-.164zm0 0" fill="rgb(25.882353%,12.941176%,4.313725%)"/><path d="M68.84 13.27l.059.055-.09.008.031-.063zm0 0" fill="rgb(25.882353%,12.941176%,4.313725%)"/><path d="M68.73 13.156l.051.051-.051-.051zm0 0" fill="rgb(25.882353%,12.941176%,4.313725%)"/><path d="M68.789 13.215l.027.031-.027-.031zm0 0" fill="rgb(25.882353%,12.941176%,4.313725%)"/><path d="M69.066 13.641c.23.039.309.246.418.414l-.234-.184-.184-.23zm0 0" fill="rgb(2.352941%,2.745098%,3.137255%)"/><path d="M69.48 14.059l.121-.027v.141l-.121-.113zm0 0" fill="rgb(2.352941%,2.745098%,3.137255%)"/><path d="M69.758 13.641l-.223.289-.184-.176.711-.852.848 1.57-.387.504-.766-1.336zm0 0" fill="rgb(89.019608%,72.54902%,7.058824%)"/><path d="M55.777 11.676c.074.402-.055.746-.309 1.07.668-.176 1.176.039 1.602.582-.699.344-1.336.25-1.961-.191-.094.652-.348 1.172-.961 1.477-.125-.586.145-1.016.559-1.434-.688.137-1.32.215-1.926-.102l.402-.371.031-.023-.004.004c.121-.109.254-.176.422-.168h.656c.25-.027.445.117.66.234l.027-.332c.031-.281.148-.52.348-.715.102-.098.168-.23.316-.273l.137.242zm0 0" fill="rgb(87.843137%,19.607843%,10.980392%)"/><path d="M53.215 12.684l-.031.023.031-.023zm0 0" fill="rgb(92.54902%,87.058824%,89.019608%)"/><path d="M53.625 12.57l.684-.008-.684.008zm0 0" fill="rgb(25.882353%,12.941176%,4.313725%)"/></g></g></svg>